<svg width="610" height="378" viewBox="0 0 610 378" fill="none" xmlns="http://www.w3.org/2000/svg">
<g clip-path="url(#clip0)">
<rect width="610" height="378" fill="white"/>
<path d="M468 275C468 250.705 463.797 226.649 455.63 204.204C447.464 181.758 435.494 161.364 420.405 144.185C405.315 127.006 387.401 113.379 367.686 104.082C347.971 94.7852 326.84 90 305.5 90C284.16 90 263.029 94.7852 243.314 104.082C223.599 113.379 205.685 127.006 190.595 144.185C175.506 161.364 163.536 181.758 155.37 204.204C147.203 226.649 143 250.705 143 275L305.5 275H468Z" fill="#CBD9D7"/>
<path d="M610 277.5C610 274.602 601.687 271.733 585.561 269.067C569.435 266.401 545.829 263.993 516.161 261.986C486.493 259.979 451.376 258.416 412.921 257.391C374.466 256.365 333.466 255.899 292.387 256.018C251.307 256.138 210.995 256.842 173.873 258.088C136.752 259.334 103.588 261.097 76.3737 263.269C49.1597 265.442 28.4579 267.98 15.5126 270.731C2.5672 273.481 -2.35449 276.388 1.04328 279.277L305 277.5H610Z" fill="#555216"/>
<rect x="143" y="201" width="325" height="75" fill="#555216"/>
<rect x="258.616" y="69.5986" width="148" height="15" transform="rotate(67.2148 258.616 69.5986)" fill="#555216"/>
<rect width="148" height="15" transform="matrix(-0.387278 0.921963 0.921963 0.387278 348.317 70)" fill="#555216"/>
<rect width="148" height="15" transform="matrix(-0.838148 0.545442 0.545442 0.838148 436.046 121)" fill="#555216"/>
<rect x="180.182" y="118" width="148" height="15" transform="rotate(33.0549 180.182 118)" fill="#555216"/>
<path d="M477.131 273.143C481.764 248.274 480.951 222.697 474.747 198.173C468.543 173.649 457.096 150.761 441.194 131.087C425.293 111.413 405.315 95.4204 382.638 84.2109C359.961 73.0013 335.123 66.8414 309.835 66.1557C284.548 65.4699 259.413 70.2746 236.161 80.2386C212.909 90.2026 192.094 105.089 175.15 123.872C158.206 142.656 145.535 164.889 138.011 189.041C130.487 213.193 128.289 238.688 131.567 263.772L156.465 260.517C153.657 239.033 155.54 217.196 161.985 196.509C168.429 175.823 179.282 156.78 193.795 140.692C208.308 124.603 226.136 111.853 246.051 103.319C265.967 94.7843 287.496 90.669 309.155 91.2564C330.814 91.8437 352.088 97.1197 371.511 106.721C390.935 116.322 408.046 130.02 421.666 146.871C435.285 163.722 445.09 183.326 450.404 204.331C455.718 225.336 456.414 247.244 452.446 268.544L477.131 273.143Z" fill="#555216"/>
<path d="M539.153 178.544L468 179.107L479.797 240.993L546.167 215.341L539.153 178.544Z" fill="#555216"/>
<path d="M71.4053 178.544L142.558 179.107L130.762 240.993L64.3912 215.341L71.4053 178.544Z" fill="#555216"/>
<path d="M131.02 73.0442L193.963 106.229L155.057 155.78L107.886 102.507L131.02 73.0442Z" fill="#555216"/>
<path d="M475.943 69.0442L413 102.229L451.906 151.78L499.077 98.507L475.943 69.0442Z" fill="#555216"/>
<path d="M249.081 4.87539L283.355 67.2327L223.595 87.1763L213.548 16.7338L249.081 4.87539Z" fill="#555216"/>
<path d="M356.971 4.04263L322.698 66.3999L382.458 86.3436L392.504 15.901L356.971 4.04263Z" fill="#555216"/>
<g filter="url(#filter0_d)">
<path d="M275.191 137L295.649 162.566L286.554 166.005H269.211L254.733 162.566L275.191 137Z" fill="#555216"/>
<path d="M279.552 151.802L300.01 177.368L286.977 183.348H269.634L248.578 172.882L279.552 151.802Z" fill="#555216"/>
<path d="M280.274 163.912L303 191.123L287.75 196.505L267.716 193.066L246.784 188.581L280.274 163.912Z" fill="#555216"/>
<path d="M275.49 177.069L298.216 204.279L282.966 209.662L262.931 206.223L242 201.738L275.49 177.069Z" fill="#555216"/>
</g>
<g filter="url(#filter1_d)">
<path d="M234.315 164L247.452 180.418L241.612 182.626H230.474L221.177 180.418L234.315 164Z" fill="#555216"/>
<path d="M237.115 173.505L250.253 189.923L241.883 193.764H230.746L217.224 187.043L237.115 173.505Z" fill="#555216"/>
<path d="M237.579 181.282L252.173 198.756L242.38 202.213L229.514 200.005L216.073 197.124L237.579 181.282Z" fill="#555216"/>
<path d="M234.507 189.731L249.1 207.205L239.307 210.662L226.442 208.454L213 205.573L234.507 189.731Z" fill="#555216"/>
</g>
<g filter="url(#filter2_d)">
<path d="M419.537 163L437.742 185.751L429.649 188.811H414.215L401.332 185.751L419.537 163Z" fill="#555216"/>
<path d="M423.418 176.172L441.623 198.923L430.025 204.245H414.592L395.854 194.932L423.418 176.172Z" fill="#555216"/>
<path d="M424.061 186.949L444.284 211.164L430.713 215.954L412.885 212.894L394.258 208.902L424.061 186.949Z" fill="#555216"/>
<path d="M419.803 198.657L440.026 222.872L426.455 227.662L408.627 224.602L390 220.61L419.803 198.657Z" fill="#555216"/>
</g>
<g filter="url(#filter3_d)">
<path d="M419.315 214L432.452 230.418L426.612 232.626H415.474L406.177 230.418L419.315 214Z" fill="#555216"/>
<path d="M422.115 223.505L435.253 239.923L426.883 243.764H415.746L402.224 237.043L422.115 223.505Z" fill="#555216"/>
<path d="M422.579 231.282L437.173 248.756L427.38 252.213L414.514 250.005L401.073 247.124L422.579 231.282Z" fill="#555216"/>
<path d="M419.507 239.731L434.1 257.205L424.307 260.662L411.442 258.454L398 255.573L419.507 239.731Z" fill="#555216"/>
</g>
<g filter="url(#filter4_d)">
<path d="M382.315 170L395.452 186.418L389.612 188.626H378.474L369.177 186.418L382.315 170Z" fill="#555216"/>
<path d="M385.115 179.505L398.253 195.923L389.883 199.764H378.746L365.224 193.043L385.115 179.505Z" fill="#555216"/>
<path d="M385.579 187.282L400.173 204.756L390.38 208.213L377.514 206.005L364.073 203.124L385.579 187.282Z" fill="#555216"/>
<path d="M382.507 195.731L397.1 213.205L387.307 216.662L374.442 214.454L361 211.573L382.507 195.731Z" fill="#555216"/>
</g>
<g filter="url(#filter5_d)">
<path d="M331.265 105L361.014 142.177L347.788 147.178H322.569L301.516 142.177L331.265 105Z" fill="#555216"/>
<path d="M337.607 126.524L367.355 163.701L348.404 172.397H323.184L292.566 157.179L337.607 126.524Z" fill="#555216"/>
<path d="M338.657 144.134L371.704 183.703L349.528 191.53L320.395 186.529L289.957 180.007L338.657 144.134Z" fill="#555216"/>
<path d="M331.7 163.266L364.747 202.835L342.571 210.662L313.438 205.661L283 199.139L331.7 163.266Z" fill="#555216"/>
</g>
<g filter="url(#filter6_d)">
<path d="M193.043 148L217.724 178.844L206.751 182.993H185.828L168.362 178.844L193.043 148Z" fill="#555216"/>
<path d="M198.304 165.857L222.985 196.701L207.262 203.916H186.339L160.936 191.29L198.304 165.857Z" fill="#555216"/>
<path d="M199.176 180.467L226.593 213.295L208.195 219.789L184.024 215.64L158.772 210.229L199.176 180.467Z" fill="#555216"/>
<path d="M193.404 196.34L220.821 229.168L202.422 235.662L178.252 231.513L153 226.102L193.404 196.34Z" fill="#555216"/>
</g>
<path d="M314.792 241.29C346.899 250.294 314.792 256.874 227 278H351.414C356.597 270.958 371.882 254.866 391.547 246.831C411.212 238.797 372.985 234.248 351.414 232.978C351.414 232.978 275.662 226.745 275.662 220.857C275.662 214.97 314.792 198 314.792 198C306.932 199.616 285.695 205.273 263.622 214.97C236.03 227.091 282.685 232.286 314.792 241.29Z" fill="white"/>
<path d="M126.847 319.8C125.887 318.947 124.687 318.307 123.247 317.88C121.807 317.4 120.394 317.16 119.007 317.16C117.46 317.16 116.047 317.453 114.767 318.04C113.487 318.573 112.367 319.347 111.407 320.36C110.5 321.32 109.78 322.493 109.247 323.88C108.714 325.267 108.447 326.76 108.447 328.36C108.447 329.96 108.74 331.453 109.327 332.84C109.914 334.227 110.714 335.427 111.727 336.44C112.74 337.4 113.914 338.173 115.247 338.76C116.634 339.293 118.1 339.56 119.647 339.56C121.46 339.56 123.114 339.187 124.607 338.44C126.1 337.64 127.38 336.573 128.447 335.24H123.647V324.04H144.207V341.8C142.98 343.987 141.514 345.987 139.807 347.8C138.1 349.56 136.18 351.08 134.047 352.36C131.967 353.64 129.7 354.627 127.247 355.32C124.794 356.013 122.26 356.36 119.647 356.36C115.807 356.36 112.18 355.64 108.767 354.2C105.354 352.76 102.367 350.787 99.8069 348.28C97.3002 345.773 95.3002 342.813 93.8069 339.4C92.3669 335.987 91.6469 332.307 91.6469 328.36C91.6469 324.52 92.3402 320.893 93.7269 317.48C95.1135 314.067 97.0069 311.107 99.4069 308.6C101.86 306.04 104.74 304.04 108.047 302.6C111.407 301.107 115.007 300.36 118.847 300.36C121.834 300.36 124.42 300.653 126.607 301.24C128.794 301.827 130.634 302.493 132.127 303.24C133.887 304.093 135.354 305.027 136.527 306.04L126.847 319.8ZM127.647 309.48C126.954 309.16 126.18 308.893 125.327 308.68C124.58 308.467 123.7 308.28 122.687 308.12C121.674 307.96 120.554 307.88 119.327 307.88C116.5 307.88 113.86 308.387 111.407 309.4C108.954 310.413 106.82 311.827 105.007 313.64C103.194 315.4 101.754 317.533 100.687 320.04C99.6735 322.547 99.1669 325.32 99.1669 328.36C99.1669 331.4 99.7002 334.173 100.767 336.68C101.834 339.187 103.3 341.347 105.167 343.16C107.034 344.92 109.194 346.307 111.647 347.32C114.154 348.333 116.82 348.84 119.647 348.84C123.327 348.84 126.66 347.987 129.647 346.28C132.634 344.52 135.06 342.2 136.927 339.32V328.84H128.447V330.76H134.847V338.76C133.194 341.213 131.034 343.16 128.367 344.6C125.754 346.04 122.847 346.76 119.647 346.76C117.087 346.76 114.687 346.333 112.447 345.48C110.26 344.573 108.314 343.32 106.607 341.72C104.954 340.067 103.647 338.12 102.687 335.88C101.727 333.587 101.247 331.08 101.247 328.36C101.247 325.64 101.7 323.16 102.607 320.92C103.567 318.627 104.847 316.68 106.447 315.08C108.1 313.427 110.02 312.173 112.207 311.32C114.394 310.413 116.767 309.96 119.327 309.96C120.287 309.96 121.194 310.04 122.047 310.2C122.9 310.36 123.647 310.52 124.287 310.68C125.034 310.893 125.727 311.107 126.367 311.32L127.647 309.48ZM165.268 336.44C167.348 336.44 169.375 336.227 171.348 335.8L178.948 348.6H181.428L173.428 335.16C176.308 334.147 178.601 332.6 180.308 330.52C182.015 328.387 182.868 325.64 182.868 322.28C182.868 319.933 182.415 317.88 181.508 316.12C180.601 314.36 179.348 312.893 177.748 311.72C176.201 310.493 174.361 309.587 172.228 309C170.095 308.36 167.775 308.04 165.268 308.04H156.628V348.6H158.708V336.44H165.268ZM158.708 334.52V309.96H165.268C170.121 309.96 173.908 311.027 176.628 313.16C179.401 315.293 180.788 318.333 180.788 322.28C180.788 326.227 179.401 329.267 176.628 331.4C173.908 333.48 170.121 334.52 165.268 334.52H158.708ZM148.628 301.64H167.028C170.441 301.64 173.588 302.093 176.468 303C179.401 303.907 181.935 305.24 184.068 307C186.201 308.76 187.855 310.947 189.028 313.56C190.255 316.12 190.868 319.08 190.868 322.44C190.868 325.107 190.495 327.373 189.748 329.24C189.001 331.107 188.175 332.653 187.268 333.88C186.201 335.267 185.001 336.44 183.668 337.4L193.668 355H173.668L165.668 341.48V355H148.628V301.64ZM165.668 327.88H166.548C168.575 327.88 170.281 327.427 171.668 326.52C173.108 325.613 173.828 324.093 173.828 321.96C173.828 319.827 173.108 318.307 171.668 317.4C170.281 316.493 168.575 316.04 166.548 316.04H165.668V327.88ZM217.109 356.36C213.749 356.36 210.709 355.933 207.989 355.08C205.269 354.227 202.949 352.947 201.029 351.24C199.109 349.533 197.615 347.373 196.549 344.76C195.535 342.147 195.029 339.08 195.029 335.56V301.64H212.069V334.84C212.069 336.707 212.442 338.147 213.189 339.16C213.989 340.12 215.295 340.6 217.109 340.6C218.922 340.6 220.202 340.12 220.949 339.16C221.749 338.147 222.149 336.707 222.149 334.84V301.64H239.269V335.56C239.269 339.08 238.735 342.147 237.669 344.76C236.655 347.373 235.162 349.533 233.189 351.24C231.269 352.947 228.949 354.227 226.229 355.08C223.509 355.933 220.469 356.36 217.109 356.36ZM217.109 346.76C209.109 346.76 205.109 342.84 205.109 335V308.04H203.029V335C203.029 339.48 204.229 342.92 206.629 345.32C209.082 347.667 212.575 348.84 217.109 348.84C221.642 348.84 225.135 347.667 227.589 345.32C230.042 342.92 231.269 339.48 231.269 335V308.04H229.109V335C229.109 342.84 225.109 346.76 217.109 346.76ZM244.644 301.64H265.524C268.19 301.64 270.617 301.96 272.804 302.6C275.044 303.187 276.937 304.093 278.484 305.32C280.084 306.493 281.31 307.987 282.164 309.8C283.07 311.56 283.524 313.64 283.524 316.04C283.524 317.747 283.31 319.213 282.884 320.44C282.457 321.613 282.004 322.6 281.524 323.4C280.937 324.36 280.27 325.16 279.524 325.8C280.697 326.547 281.764 327.507 282.724 328.68C283.524 329.693 284.244 330.973 284.884 332.52C285.577 334.067 285.924 335.96 285.924 338.2C285.924 340.76 285.47 343.08 284.564 345.16C283.657 347.24 282.35 349.027 280.644 350.52C278.99 351.96 276.937 353.08 274.484 353.88C272.084 354.627 269.39 355 266.404 355H244.644V301.64ZM263.044 342.44C267.097 342.44 269.124 340.893 269.124 337.8C269.124 334.707 267.097 333.16 263.044 333.16H261.124V342.44H263.044ZM267.044 317.88C267.044 315.427 265.71 314.2 263.044 314.2H261.124V321.56H263.044C265.71 321.56 267.044 320.333 267.044 317.88ZM264.164 348.6C268.857 348.6 272.324 347.587 274.564 345.56C276.804 343.533 277.924 340.84 277.924 337.48C277.924 335.293 277.444 333.56 276.484 332.28C275.577 330.947 274.59 329.907 273.524 329.16C272.19 328.307 270.724 327.72 269.124 327.4C270.404 327.027 271.55 326.44 272.564 325.64C273.47 324.947 274.27 324.013 274.964 322.84C275.71 321.613 276.084 320.067 276.084 318.2C276.084 314.84 275.017 312.307 272.884 310.6C270.75 308.893 267.844 308.04 264.164 308.04H252.644V348.6H264.164ZM254.724 346.68V328.36H264.084C265.737 328.36 267.257 328.547 268.644 328.92C270.084 329.24 271.337 329.773 272.404 330.52C273.47 331.213 274.297 332.147 274.884 333.32C275.524 334.493 275.844 335.88 275.844 337.48C275.844 340.733 274.75 343.08 272.564 344.52C270.43 345.96 267.604 346.68 264.084 346.68H254.724ZM254.724 326.44V309.96H264.164C267.63 309.96 270.11 310.733 271.604 312.28C273.15 313.773 273.924 315.747 273.924 318.2C273.924 320.653 273.15 322.653 271.604 324.2C270.11 325.693 267.63 326.44 264.164 326.44H254.724ZM289.488 301.64H303.568L317.488 322.12L331.328 301.64H345.408V355H328.368V335.8L317.488 351.8L306.528 335.8V355H289.488V301.64ZM299.568 348.6V311.88L317.488 337.96L335.328 311.88V348.6H337.408V308.04H335.328L317.488 334.36L299.568 308.04H297.488V348.6H299.568ZM372.812 356.36C369.452 356.36 366.412 355.933 363.692 355.08C360.972 354.227 358.652 352.947 356.732 351.24C354.812 349.533 353.319 347.373 352.252 344.76C351.239 342.147 350.732 339.08 350.732 335.56V301.64H367.772V334.84C367.772 336.707 368.145 338.147 368.892 339.16C369.692 340.12 370.999 340.6 372.812 340.6C374.625 340.6 375.905 340.12 376.652 339.16C377.452 338.147 377.852 336.707 377.852 334.84V301.64H394.972V335.56C394.972 339.08 394.439 342.147 393.372 344.76C392.359 347.373 390.865 349.533 388.892 351.24C386.972 352.947 384.652 354.227 381.932 355.08C379.212 355.933 376.172 356.36 372.812 356.36ZM372.812 346.76C364.812 346.76 360.812 342.84 360.812 335V308.04H358.732V335C358.732 339.48 359.932 342.92 362.332 345.32C364.785 347.667 368.279 348.84 372.812 348.84C377.345 348.84 380.839 347.667 383.292 345.32C385.745 342.92 386.972 339.48 386.972 335V308.04H384.812V335C384.812 342.84 380.812 346.76 372.812 346.76ZM360.812 290.44H371.052V298.52H360.812V290.44ZM367.692 293.64H364.172V295.32H367.692V293.64ZM374.572 290.44H384.812V298.52H374.572V290.44ZM381.452 293.64H377.932V295.32H381.452V293.64ZM400.347 301.64H417.387V319.8H426.907V301.64H444.027V355H426.907V335.24H417.387V355H400.347V301.64ZM410.427 348.6V328.36H433.947V348.6H436.027V308.04H433.947V326.44H410.427V308.04H408.347V348.6H410.427ZM449.644 301.64H467.404V341H482.124V355H449.644V301.64ZM477.644 348.6V346.68H459.724V308.04H457.644V348.6H477.644ZM484.956 301.64H516.396V315.64H501.996V321.56H516.156V334.84H501.996V341H516.956V355H484.956V301.64ZM511.036 348.6V346.68H495.036V329.16H510.236V327.24H495.036V309.96H511.036V308.04H492.956V348.6H511.036Z" fill="#555216"/>
</g>
<defs>
<filter id="filter0_d" x="242" y="134" width="65" height="76.6617" filterUnits="userSpaceOnUse" color-interpolation-filters="sRGB">
<feFlood flood-opacity="0" result="BackgroundImageFix"/>
<feColorMatrix in="SourceAlpha" type="matrix" values="0 0 0 0 0 0 0 0 0 0 0 0 0 0 0 0 0 0 127 0"/>
<feOffset dx="2" dy="-1"/>
<feGaussianBlur stdDeviation="1"/>
<feColorMatrix type="matrix" values="0 0 0 0 0 0 0 0 0 0 0 0 0 0 0 0 0 0 0.25 0"/>
<feBlend mode="normal" in2="BackgroundImageFix" result="effect1_dropShadow"/>
<feBlend mode="normal" in="SourceGraphic" in2="effect1_dropShadow" result="shape"/>
</filter>
<filter id="filter1_d" x="213" y="161" width="43.173" height="50.6618" filterUnits="userSpaceOnUse" color-interpolation-filters="sRGB">
<feFlood flood-opacity="0" result="BackgroundImageFix"/>
<feColorMatrix in="SourceAlpha" type="matrix" values="0 0 0 0 0 0 0 0 0 0 0 0 0 0 0 0 0 0 127 0"/>
<feOffset dx="2" dy="-1"/>
<feGaussianBlur stdDeviation="1"/>
<feColorMatrix type="matrix" values="0 0 0 0 0 0 0 0 0 0 0 0 0 0 0 0 0 0 0.25 0"/>
<feBlend mode="normal" in2="BackgroundImageFix" result="effect1_dropShadow"/>
<feBlend mode="normal" in="SourceGraphic" in2="effect1_dropShadow" result="shape"/>
</filter>
<filter id="filter2_d" x="390" y="160" width="58.2841" height="68.6619" filterUnits="userSpaceOnUse" color-interpolation-filters="sRGB">
<feFlood flood-opacity="0" result="BackgroundImageFix"/>
<feColorMatrix in="SourceAlpha" type="matrix" values="0 0 0 0 0 0 0 0 0 0 0 0 0 0 0 0 0 0 127 0"/>
<feOffset dx="2" dy="-1"/>
<feGaussianBlur stdDeviation="1"/>
<feColorMatrix type="matrix" values="0 0 0 0 0 0 0 0 0 0 0 0 0 0 0 0 0 0 0.25 0"/>
<feBlend mode="normal" in2="BackgroundImageFix" result="effect1_dropShadow"/>
<feBlend mode="normal" in="SourceGraphic" in2="effect1_dropShadow" result="shape"/>
</filter>
<filter id="filter3_d" x="398" y="211" width="43.173" height="50.6618" filterUnits="userSpaceOnUse" color-interpolation-filters="sRGB">
<feFlood flood-opacity="0" result="BackgroundImageFix"/>
<feColorMatrix in="SourceAlpha" type="matrix" values="0 0 0 0 0 0 0 0 0 0 0 0 0 0 0 0 0 0 127 0"/>
<feOffset dx="2" dy="-1"/>
<feGaussianBlur stdDeviation="1"/>
<feColorMatrix type="matrix" values="0 0 0 0 0 0 0 0 0 0 0 0 0 0 0 0 0 0 0.25 0"/>
<feBlend mode="normal" in2="BackgroundImageFix" result="effect1_dropShadow"/>
<feBlend mode="normal" in="SourceGraphic" in2="effect1_dropShadow" result="shape"/>
</filter>
<filter id="filter4_d" x="361" y="167" width="43.173" height="50.6618" filterUnits="userSpaceOnUse" color-interpolation-filters="sRGB">
<feFlood flood-opacity="0" result="BackgroundImageFix"/>
<feColorMatrix in="SourceAlpha" type="matrix" values="0 0 0 0 0 0 0 0 0 0 0 0 0 0 0 0 0 0 127 0"/>
<feOffset dx="2" dy="-1"/>
<feGaussianBlur stdDeviation="1"/>
<feColorMatrix type="matrix" values="0 0 0 0 0 0 0 0 0 0 0 0 0 0 0 0 0 0 0.25 0"/>
<feBlend mode="normal" in2="BackgroundImageFix" result="effect1_dropShadow"/>
<feBlend mode="normal" in="SourceGraphic" in2="effect1_dropShadow" result="shape"/>
</filter>
<filter id="filter5_d" x="283" y="102" width="92.7038" height="109.662" filterUnits="userSpaceOnUse" color-interpolation-filters="sRGB">
<feFlood flood-opacity="0" result="BackgroundImageFix"/>
<feColorMatrix in="SourceAlpha" type="matrix" values="0 0 0 0 0 0 0 0 0 0 0 0 0 0 0 0 0 0 127 0"/>
<feOffset dx="2" dy="-1"/>
<feGaussianBlur stdDeviation="1"/>
<feColorMatrix type="matrix" values="0 0 0 0 0 0 0 0 0 0 0 0 0 0 0 0 0 0 0.25 0"/>
<feBlend mode="normal" in2="BackgroundImageFix" result="effect1_dropShadow"/>
<feBlend mode="normal" in="SourceGraphic" in2="effect1_dropShadow" result="shape"/>
</filter>
<filter id="filter6_d" x="153" y="145" width="77.5927" height="91.6616" filterUnits="userSpaceOnUse" color-interpolation-filters="sRGB">
<feFlood flood-opacity="0" result="BackgroundImageFix"/>
<feColorMatrix in="SourceAlpha" type="matrix" values="0 0 0 0 0 0 0 0 0 0 0 0 0 0 0 0 0 0 127 0"/>
<feOffset dx="2" dy="-1"/>
<feGaussianBlur stdDeviation="1"/>
<feColorMatrix type="matrix" values="0 0 0 0 0 0 0 0 0 0 0 0 0 0 0 0 0 0 0.25 0"/>
<feBlend mode="normal" in2="BackgroundImageFix" result="effect1_dropShadow"/>
<feBlend mode="normal" in="SourceGraphic" in2="effect1_dropShadow" result="shape"/>
</filter>
<clipPath id="clip0">
<rect width="610" height="378" fill="white"/>
</clipPath>
</defs>
</svg>
