<svg width="177" height="190" viewBox="0 0 177 190" fill="none" xmlns="http://www.w3.org/2000/svg">
<rect width="56.8956" height="5.48002" transform="matrix(0.363787 0.931482 -0.911307 0.411728 71.3618 27.0325)" fill="#0088D5"/>
<rect width="57.146" height="5.45319" transform="matrix(-0.274639 0.961547 0.949511 0.313735 103.685 26.4871)" fill="#0088D5"/>
<rect width="54.6772" height="5.70728" transform="matrix(-0.762034 0.647537 0.595417 0.803417 136.484 45.1206)" fill="#0088D5"/>
<rect width="54.6772" height="5.70728" transform="matrix(0.819253 0.573432 -0.51767 0.855581 43.0371 45.8335)" fill="#0088D5"/>
<path d="M107.917 154.576L91.1261 100.214L96.2708 98.3268L113.061 152.688L107.917 154.576Z" fill="#0088D5"/>
<rect width="56.8956" height="5.48002" transform="matrix(0.363788 -0.931482 -0.911307 -0.411728 73.0103 153.922)" fill="#0088D5"/>
<rect width="54.6773" height="5.70729" transform="matrix(0.819253 -0.573432 -0.51767 -0.855581 43.0361 134.114)" fill="#0088D5"/>
<rect width="54.6772" height="5.70728" transform="matrix(-0.729137 -0.684367 0.634354 -0.773043 135.474 137.508)" fill="#0088D5"/>
<rect width="53.6718" height="5.80449" transform="matrix(-0.968345 -0.249615 0.217493 -0.976062 148.531 108.437)" fill="#0088D5"/>
<rect width="53.6717" height="5.80449" transform="matrix(0.968345 -0.249615 -0.217494 -0.976062 30.8667 110.339)" fill="#0088D5"/>
<rect width="53.4801" height="5.82264" transform="matrix(0.99509 0.0989721 0.0856603 -0.996324 29.9692 84.6472)" fill="#0088D5"/>
<rect width="53.4801" height="5.82263" transform="matrix(-0.99509 0.0989721 -0.0856602 -0.996324 151.213 83.8705)" fill="#0088D5"/>
<path d="M150.273 106.088C151.946 96.4288 151.652 86.4945 149.412 76.9694C147.171 67.4443 143.038 58.5548 137.296 50.9135C131.553 43.2721 124.339 37.0605 116.15 32.7068C107.961 28.353 98.9918 25.9605 89.8603 25.6942C80.7287 25.4278 71.652 27.2939 63.2556 31.1639C54.8592 35.034 47.3426 40.8159 41.2238 48.1113C35.1051 55.4067 30.5295 64.0421 27.8125 73.4226C25.0955 82.8032 24.3016 92.7057 25.4855 102.448L34.4765 101.184C33.4625 92.8396 34.1425 84.3579 36.4696 76.3234C38.7968 68.2888 42.7158 60.8924 47.9566 54.6438C53.1974 48.3952 59.6355 43.4429 66.8272 40.1282C74.0188 36.8135 81.7931 35.2151 89.6145 35.4432C97.4358 35.6714 105.118 37.7206 112.132 41.4496C119.146 45.1787 125.325 50.499 130.244 57.0439C135.162 63.5889 138.702 71.2028 140.621 79.3612C142.54 87.5197 142.792 96.0285 141.359 104.302L150.273 106.088Z" fill="#0088D5"/>
<path d="M172.667 69.3461L146.972 69.5647L151.232 93.6011L175.2 83.638L172.667 69.3461Z" fill="#0088D5"/>
<path d="M3.75663 69.3461L29.4509 69.5647L25.191 93.6011L1.22375 83.638L3.75663 69.3461Z" fill="#0088D5"/>
<path d="M25.2859 28.37L48.0155 41.259L33.966 60.5046L16.9322 39.8133L25.2859 28.37Z" fill="#0088D5"/>
<path d="M149.845 26.8142L127.115 39.7032L141.165 58.9488L158.199 38.2576L149.845 26.8142Z" fill="#0088D5"/>
<path d="M67.9211 1.89254L80.2975 26.1121L58.7175 33.8581L55.0897 6.49832L67.9211 1.89254Z" fill="#0088D5"/>
<path d="M106.879 1.57015L94.5028 25.7897L116.083 33.5358L119.711 6.17593L106.879 1.57015Z" fill="#0088D5"/>
<path d="M150.273 106.088C151.946 96.4288 151.652 86.4945 149.412 76.9694C147.171 67.4443 143.038 58.5548 137.296 50.9135C131.553 43.2721 124.339 37.0605 116.15 32.7068C107.961 28.353 98.9918 25.9605 89.8603 25.6942C80.7287 25.4278 71.652 27.2939 63.2556 31.1639C54.8592 35.034 47.3426 40.8159 41.2238 48.1113C35.1051 55.4067 30.5295 64.0421 27.8125 73.4226C25.0955 82.8032 24.3016 92.7057 25.4855 102.448L34.4765 101.184C33.4625 92.8396 34.1425 84.3579 36.4696 76.3234C38.7968 68.2888 42.7158 60.8924 47.9566 54.6438C53.1974 48.3952 59.6355 43.4429 66.8272 40.1282C74.0188 36.8135 81.7931 35.2151 89.6145 35.4432C97.4358 35.6714 105.118 37.7206 112.132 41.4496C119.146 45.1787 125.325 50.499 130.244 57.0439C135.162 63.5889 138.702 71.2028 140.621 79.3612C142.54 87.5197 142.792 96.0285 141.359 104.302L150.273 106.088Z" fill="#0088D5"/>
<path d="M172.667 69.3461L146.972 69.5647L151.232 93.6011L175.2 83.638L172.667 69.3461Z" fill="#0088D5"/>
<path d="M3.75663 69.3461L29.4509 69.5647L25.191 93.6011L1.22375 83.638L3.75663 69.3461Z" fill="#0088D5"/>
<path d="M25.2859 28.37L48.0155 41.259L33.966 60.5046L16.9322 39.8133L25.2859 28.37Z" fill="#0088D5"/>
<path d="M149.845 26.8142L127.115 39.7032L141.165 58.9488L158.199 38.2576L149.845 26.8142Z" fill="#0088D5"/>
<path d="M67.9211 1.89254L80.2975 26.1121L58.7175 33.8581L55.0897 6.49832L67.9211 1.89254Z" fill="#0088D5"/>
<path d="M106.879 1.57015L94.5028 25.7897L116.083 33.5358L119.711 6.17593L106.879 1.57015Z" fill="#0088D5"/>
<path d="M25.7911 83.9087C24.118 93.5677 24.4117 103.502 26.6521 113.027C28.8924 122.552 33.0261 131.442 38.7683 139.083C44.5104 146.724 51.7246 152.936 59.9137 157.29C68.1028 161.644 77.0721 164.036 86.2037 164.302C95.3352 164.569 104.412 162.703 112.808 158.833C121.205 154.963 128.721 149.181 134.84 141.885C140.959 134.59 145.534 125.954 148.251 116.574C150.968 107.193 151.762 97.2908 150.578 87.5485L141.587 88.8125C142.601 97.1569 141.921 105.639 139.594 113.673C137.267 121.708 133.348 129.104 128.107 135.353C122.866 141.601 116.428 146.554 109.237 149.868C102.045 153.183 94.2708 154.781 86.4495 154.553C78.6282 154.325 70.9458 152.276 63.9317 148.547C56.9176 144.818 50.7386 139.498 45.8203 132.953C40.9021 126.408 37.3615 118.794 35.4427 110.635C33.5238 102.477 33.2722 93.968 34.7052 85.695L25.7911 83.9087Z" fill="#0088D5"/>
<path d="M3.39628 120.653L29.0905 120.435L24.8307 96.3985L0.863392 106.362L3.39628 120.653Z" fill="#0088D5"/>
<path d="M172.304 120.653L146.61 120.435L150.869 96.3984L174.837 106.362L172.304 120.653Z" fill="#0088D5"/>
<path d="M150.775 161.628L128.046 148.739L142.095 129.493L159.129 150.184L150.775 161.628Z" fill="#0088D5"/>
<path d="M26.219 163.182L48.9486 150.293L34.8991 131.048L17.8653 151.739L26.219 163.182Z" fill="#0088D5"/>
<path d="M108.142 188.105L95.766 163.886L117.346 156.139L120.974 183.499L108.142 188.105Z" fill="#0088D5"/>
<path d="M69.1818 188.43L81.5583 164.21L59.9782 156.464L56.3504 183.824L69.1818 188.43Z" fill="#0088D5"/>
<path d="M25.7911 83.9087C24.118 93.5677 24.4117 103.502 26.6521 113.027C28.8924 122.552 33.0261 131.442 38.7683 139.083C44.5104 146.724 51.7246 152.936 59.9137 157.29C68.1028 161.644 77.0721 164.036 86.2037 164.302C95.3352 164.569 104.412 162.703 112.808 158.833C121.205 154.963 128.721 149.181 134.84 141.885C140.959 134.59 145.534 125.954 148.251 116.574C150.968 107.193 151.762 97.2908 150.578 87.5485L141.587 88.8125C142.601 97.1569 141.921 105.639 139.594 113.673C137.267 121.708 133.348 129.104 128.107 135.353C122.866 141.601 116.428 146.554 109.237 149.868C102.045 153.183 94.2708 154.781 86.4495 154.553C78.6282 154.325 70.9458 152.276 63.9317 148.547C56.9176 144.818 50.7386 139.498 45.8203 132.953C40.9021 126.408 37.3615 118.794 35.4427 110.635C33.5238 102.477 33.2722 93.968 34.7052 85.695L25.7911 83.9087Z" fill="#0088D5"/>
<path d="M3.39628 120.653L29.0905 120.435L24.8307 96.3985L0.863392 106.362L3.39628 120.653Z" fill="#0088D5"/>
<path d="M172.304 120.653L146.61 120.435L150.869 96.3984L174.837 106.362L172.304 120.653Z" fill="#0088D5"/>
<path d="M150.775 161.628L128.046 148.739L142.095 129.493L159.129 150.184L150.775 161.628Z" fill="#0088D5"/>
<path d="M26.219 163.182L48.9486 150.293L34.8991 131.048L17.8653 151.739L26.219 163.182Z" fill="#0088D5"/>
<path d="M108.142 188.105L95.766 163.886L117.346 156.139L120.974 183.499L108.142 188.105Z" fill="#0088D5"/>
<path d="M69.1818 188.43L81.5583 164.21L59.9782 156.464L56.3504 183.824L69.1818 188.43Z" fill="#0088D5"/>
<ellipse cx="90.6355" cy="89.3302" rx="15.8889" ry="17.0896" fill="#0088D5"/>
</svg>
