<svg width="354" height="190" viewBox="0 0 354 190" fill="none" xmlns="http://www.w3.org/2000/svg">
<g clip-path="url(#clip0)">
<rect width="354" height="190" fill="#2B2523"/>
<rect width="56.8956" height="5.48002" transform="matrix(0.363787 0.931482 -0.911307 0.411728 71.3618 27.0325)" fill="#0088D5"/>
<rect width="57.146" height="5.45319" transform="matrix(-0.274639 0.961547 0.949511 0.313735 103.685 26.4871)" fill="#0088D5"/>
<rect width="54.6772" height="5.70728" transform="matrix(-0.762034 0.647537 0.595417 0.803417 136.484 45.1206)" fill="#0088D5"/>
<rect width="54.6772" height="5.70728" transform="matrix(0.819253 0.573432 -0.51767 0.855581 43.0371 45.8335)" fill="#0088D5"/>
<path d="M107.917 154.576L91.1261 100.214L96.2708 98.327L113.061 152.689L107.917 154.576Z" fill="#0088D5"/>
<rect width="56.8956" height="5.48002" transform="matrix(0.363788 -0.931482 -0.911307 -0.411728 73.0103 153.922)" fill="#0088D5"/>
<rect width="54.6773" height="5.70729" transform="matrix(0.819253 -0.573432 -0.51767 -0.855581 43.0361 134.114)" fill="#0088D5"/>
<rect width="54.6772" height="5.70728" transform="matrix(-0.729137 -0.684367 0.634354 -0.773043 135.474 137.508)" fill="#0088D5"/>
<rect width="53.6718" height="5.80449" transform="matrix(-0.968345 -0.249615 0.217493 -0.976062 148.531 108.437)" fill="#0088D5"/>
<rect width="53.6717" height="5.80449" transform="matrix(0.968345 -0.249615 -0.217494 -0.976062 30.8667 110.339)" fill="#0088D5"/>
<rect width="53.4801" height="5.82264" transform="matrix(0.99509 0.0989721 0.0856603 -0.996324 29.9692 84.6472)" fill="#0088D5"/>
<rect width="53.4801" height="5.82263" transform="matrix(-0.99509 0.0989721 -0.0856602 -0.996324 151.213 83.8706)" fill="#0088D5"/>
<path d="M150.273 106.088C151.946 96.4288 151.652 86.4945 149.412 76.9694C147.171 67.4443 143.038 58.5548 137.296 50.9134C131.553 43.2721 124.339 37.0605 116.15 32.7068C107.961 28.353 98.9918 25.9605 89.8603 25.6942C80.7287 25.4278 71.652 27.2939 63.2556 31.1639C54.8592 35.034 47.3426 40.8159 41.2238 48.1113C35.1051 55.4067 30.5295 64.0421 27.8125 73.4226C25.0955 82.8032 24.3016 92.7057 25.4855 102.448L34.4765 101.184C33.4625 92.8396 34.1425 84.3579 36.4696 76.3234C38.7968 68.2888 42.7158 60.8924 47.9566 54.6438C53.1974 48.3952 59.6355 43.4429 66.8272 40.1282C74.0188 36.8135 81.7931 35.2151 89.6145 35.4432C97.4358 35.6714 105.118 37.7206 112.132 41.4496C119.146 45.1787 125.325 50.499 130.244 57.0439C135.162 63.5889 138.702 71.2028 140.621 79.3612C142.54 87.5196 142.792 96.0285 141.359 104.302L150.273 106.088Z" fill="#0088D5"/>
<path d="M172.667 69.3461L146.972 69.5647L151.232 93.6011L175.2 83.638L172.667 69.3461Z" fill="#0088D5"/>
<path d="M3.75663 69.3461L29.4509 69.5647L25.191 93.6011L1.22375 83.638L3.75663 69.3461Z" fill="#0088D5"/>
<path d="M25.2859 28.3699L48.0155 41.2588L33.966 60.5045L16.9322 39.8132L25.2859 28.3699Z" fill="#0088D5"/>
<path d="M149.845 26.8142L127.115 39.7032L141.165 58.9488L158.199 38.2576L149.845 26.8142Z" fill="#0088D5"/>
<path d="M67.9211 1.89242L80.2975 26.1119L58.7175 33.858L55.0897 6.4982L67.9211 1.89242Z" fill="#0088D5"/>
<path d="M106.879 1.57015L94.5028 25.7897L116.083 33.5358L119.711 6.17593L106.879 1.57015Z" fill="#0088D5"/>
<path d="M150.273 106.088C151.946 96.4288 151.652 86.4945 149.412 76.9694C147.171 67.4443 143.038 58.5548 137.296 50.9134C131.553 43.2721 124.339 37.0605 116.15 32.7068C107.961 28.353 98.9918 25.9605 89.8603 25.6942C80.7287 25.4278 71.652 27.2939 63.2556 31.1639C54.8592 35.034 47.3426 40.8159 41.2238 48.1113C35.1051 55.4067 30.5295 64.0421 27.8125 73.4226C25.0955 82.8032 24.3016 92.7057 25.4855 102.448L34.4765 101.184C33.4625 92.8396 34.1425 84.3579 36.4696 76.3234C38.7968 68.2888 42.7158 60.8924 47.9566 54.6438C53.1974 48.3952 59.6355 43.4429 66.8272 40.1282C74.0188 36.8135 81.7931 35.2151 89.6145 35.4432C97.4358 35.6714 105.118 37.7206 112.132 41.4496C119.146 45.1787 125.325 50.499 130.244 57.0439C135.162 63.5889 138.702 71.2028 140.621 79.3612C142.54 87.5196 142.792 96.0285 141.359 104.302L150.273 106.088Z" fill="#0088D5"/>
<path d="M172.667 69.3461L146.972 69.5647L151.232 93.6011L175.2 83.638L172.667 69.3461Z" fill="#0088D5"/>
<path d="M3.75663 69.3461L29.4509 69.5647L25.191 93.6011L1.22375 83.638L3.75663 69.3461Z" fill="#0088D5"/>
<path d="M25.2859 28.3699L48.0155 41.2588L33.966 60.5045L16.9322 39.8132L25.2859 28.3699Z" fill="#0088D5"/>
<path d="M149.845 26.8142L127.115 39.7032L141.165 58.9488L158.199 38.2576L149.845 26.8142Z" fill="#0088D5"/>
<path d="M67.9211 1.89242L80.2975 26.1119L58.7175 33.858L55.0897 6.4982L67.9211 1.89242Z" fill="#0088D5"/>
<path d="M106.879 1.57015L94.5028 25.7897L116.083 33.5358L119.711 6.17593L106.879 1.57015Z" fill="#0088D5"/>
<path d="M25.7911 83.9087C24.118 93.5677 24.4117 103.502 26.6521 113.027C28.8924 122.552 33.0261 131.442 38.7683 139.083C44.5104 146.724 51.7246 152.936 59.9137 157.29C68.1028 161.644 77.0721 164.036 86.2037 164.302C95.3352 164.569 104.412 162.703 112.808 158.833C121.205 154.963 128.721 149.181 134.84 141.885C140.959 134.59 145.534 125.954 148.251 116.574C150.968 107.193 151.762 97.2908 150.578 87.5485L141.587 88.8125C142.601 97.1569 141.921 105.639 139.594 113.673C137.267 121.708 133.348 129.104 128.107 135.353C122.866 141.601 116.428 146.554 109.237 149.868C102.045 153.183 94.2708 154.781 86.4495 154.553C78.6282 154.325 70.9458 152.276 63.9317 148.547C56.9176 144.818 50.7386 139.498 45.8203 132.953C40.9021 126.408 37.3615 118.794 35.4427 110.635C33.5238 102.477 33.2722 93.968 34.7052 85.695L25.7911 83.9087Z" fill="#0088D5"/>
<path d="M3.39628 120.653L29.0905 120.435L24.8307 96.3985L0.863392 106.362L3.39628 120.653Z" fill="#0088D5"/>
<path d="M172.304 120.653L146.61 120.435L150.869 96.3984L174.837 106.362L172.304 120.653Z" fill="#0088D5"/>
<path d="M150.775 161.628L128.046 148.739L142.095 129.493L159.129 150.184L150.775 161.628Z" fill="#0088D5"/>
<path d="M26.219 163.182L48.9486 150.293L34.8991 131.048L17.8653 151.739L26.219 163.182Z" fill="#0088D5"/>
<path d="M108.142 188.105L95.766 163.885L117.346 156.139L120.974 183.499L108.142 188.105Z" fill="#0088D5"/>
<path d="M69.1818 188.43L81.5583 164.21L59.9782 156.464L56.3504 183.824L69.1818 188.43Z" fill="#0088D5"/>
<path d="M25.7911 83.9087C24.118 93.5677 24.4117 103.502 26.6521 113.027C28.8924 122.552 33.0261 131.442 38.7683 139.083C44.5104 146.724 51.7246 152.936 59.9137 157.29C68.1028 161.644 77.0721 164.036 86.2037 164.302C95.3352 164.569 104.412 162.703 112.808 158.833C121.205 154.963 128.721 149.181 134.84 141.885C140.959 134.59 145.534 125.954 148.251 116.574C150.968 107.193 151.762 97.2908 150.578 87.5485L141.587 88.8125C142.601 97.1569 141.921 105.639 139.594 113.673C137.267 121.708 133.348 129.104 128.107 135.353C122.866 141.601 116.428 146.554 109.237 149.868C102.045 153.183 94.2708 154.781 86.4495 154.553C78.6282 154.325 70.9458 152.276 63.9317 148.547C56.9176 144.818 50.7386 139.498 45.8203 132.953C40.9021 126.408 37.3615 118.794 35.4427 110.635C33.5238 102.477 33.2722 93.968 34.7052 85.695L25.7911 83.9087Z" fill="#0088D5"/>
<path d="M3.39628 120.653L29.0905 120.435L24.8307 96.3985L0.863392 106.362L3.39628 120.653Z" fill="#0088D5"/>
<path d="M172.304 120.653L146.61 120.435L150.869 96.3984L174.837 106.362L172.304 120.653Z" fill="#0088D5"/>
<path d="M150.775 161.628L128.046 148.739L142.095 129.493L159.129 150.184L150.775 161.628Z" fill="#0088D5"/>
<path d="M26.219 163.182L48.9486 150.293L34.8991 131.048L17.8653 151.739L26.219 163.182Z" fill="#0088D5"/>
<path d="M108.142 188.105L95.766 163.885L117.346 156.139L120.974 183.499L108.142 188.105Z" fill="#0088D5"/>
<path d="M69.1818 188.43L81.5583 164.21L59.9782 156.464L56.3504 183.824L69.1818 188.43Z" fill="#0088D5"/>
<ellipse cx="90.6355" cy="89.33" rx="15.8889" ry="17.0896" fill="#0088D5"/>
<rect x="88" width="100" height="190" fill="#2B2523"/>
<path d="M109.809 12.32H118.329V21.4H123.089V12.32H131.649V39H123.089V29.12H118.329V39H109.809V12.32ZM114.849 35.8V25.68H126.609V35.8H127.649V15.52H126.609V24.72H114.849V15.52H113.809V35.8H114.849ZM187.977 12.32H194.377L204.497 39H196.097L195.217 36.6H187.137L186.257 39H177.857L187.977 12.32ZM192.977 30.72L191.177 26.04L189.377 30.72H192.977ZM183.817 35.8L184.577 33.8H197.777L198.537 35.8H199.657L191.937 15.52H190.417L182.697 35.8H183.817ZM191.177 16.48L197.417 32.84H184.937L191.177 16.48ZM261.616 39.68C259.936 39.68 258.416 39.4667 257.056 39.04C255.696 38.6133 254.536 37.9733 253.576 37.12C252.616 36.2667 251.869 35.1867 251.336 33.88C250.829 32.5733 250.576 31.04 250.576 29.28V12.32H259.096V28.92C259.096 29.8533 259.283 30.5733 259.656 31.08C260.056 31.56 260.709 31.8 261.616 31.8C262.523 31.8 263.163 31.56 263.536 31.08C263.936 30.5733 264.136 29.8533 264.136 28.92V12.32H272.696V29.28C272.696 31.04 272.429 32.5733 271.896 33.88C271.389 35.1867 270.643 36.2667 269.656 37.12C268.696 37.9733 267.536 38.6133 266.176 39.04C264.816 39.4667 263.296 39.68 261.616 39.68ZM261.616 34.88C257.616 34.88 255.616 32.92 255.616 29V15.52H254.576V29C254.576 31.24 255.176 32.96 256.376 34.16C257.603 35.3333 259.349 35.92 261.616 35.92C263.883 35.92 265.629 35.3333 266.856 34.16C268.083 32.96 268.696 31.24 268.696 29V15.52H267.616V29C267.616 32.92 265.616 34.88 261.616 34.88ZM323.624 35.52C323.997 35.6 324.397 35.6667 324.824 35.72C325.197 35.7733 325.584 35.8267 325.984 35.88C326.41 35.9067 326.837 35.92 327.264 35.92C328.01 35.92 328.73 35.84 329.424 35.68C330.144 35.4933 330.784 35.2 331.344 34.8C331.904 34.4 332.344 33.8933 332.664 33.28C333.01 32.64 333.184 31.8667 333.184 30.96C333.184 30.1867 332.984 29.4533 332.584 28.76C332.21 28.0667 331.717 27.4 331.104 26.76C330.517 26.12 329.877 25.5067 329.184 24.92C328.517 24.3333 327.877 23.7467 327.264 23.16C326.677 22.5467 326.184 21.9467 325.784 21.36C325.41 20.7467 325.224 20.12 325.224 19.48C325.224 18.52 325.53 17.7867 326.144 17.28C326.757 16.7467 327.744 16.48 329.104 16.48C329.317 16.48 329.53 16.4933 329.744 16.52C329.984 16.52 330.21 16.5333 330.424 16.56C330.637 16.5867 330.85 16.6 331.064 16.6V15.56C330.877 15.56 330.677 15.5467 330.464 15.52C330.277 15.4933 330.064 15.48 329.824 15.48C329.61 15.4533 329.384 15.44 329.144 15.44C327.704 15.44 326.517 15.7733 325.584 16.44C324.65 17.08 324.184 18.0933 324.184 19.48C324.184 20.2267 324.37 20.9333 324.744 21.6C325.144 22.24 325.637 22.88 326.224 23.52C326.837 24.1333 327.477 24.7333 328.144 25.32C328.837 25.9067 329.477 26.5067 330.064 27.12C330.677 27.7067 331.17 28.32 331.544 28.96C331.944 29.6 332.144 30.2667 332.144 30.96C332.144 32.24 331.704 33.2133 330.824 33.88C329.97 34.5467 328.784 34.88 327.264 34.88C326.357 34.88 325.53 34.8133 324.784 34.68C324.384 34.6267 323.997 34.56 323.624 34.48V35.52ZM320.264 30.72C320.85 30.9067 321.464 31.0533 322.104 31.16C322.637 31.2933 323.237 31.4 323.904 31.48C324.597 31.56 325.29 31.6 325.984 31.6C327.21 31.6 327.824 31.1467 327.824 30.24C327.824 29.8933 327.637 29.5467 327.264 29.2C326.89 28.8267 326.41 28.4267 325.824 28C325.264 27.5467 324.65 27.0533 323.984 26.52C323.344 25.9867 322.73 25.3733 322.144 24.68C321.584 23.9867 321.117 23.2133 320.744 22.36C320.37 21.48 320.184 20.48 320.184 19.36C320.184 18.1067 320.41 17 320.864 16.04C321.317 15.08 321.944 14.28 322.744 13.64C323.544 13 324.477 12.52 325.544 12.2C326.637 11.8533 327.797 11.68 329.024 11.68C329.664 11.68 330.304 11.72 330.944 11.8C331.584 11.8533 332.157 11.9067 332.664 11.96C333.25 12.04 333.824 12.12 334.384 12.2V19.68C334.17 19.6533 333.93 19.6267 333.664 19.6C333.45 19.5733 333.21 19.5467 332.944 19.52C332.677 19.4933 332.397 19.48 332.104 19.48C331.944 19.48 331.744 19.4933 331.504 19.52C331.264 19.52 331.037 19.5467 330.824 19.6C330.61 19.6533 330.424 19.7467 330.264 19.88C330.104 20.0133 330.024 20.2 330.024 20.44C330.024 20.6533 330.197 20.92 330.544 21.24C330.917 21.56 331.357 21.9333 331.864 22.36C332.397 22.7867 332.97 23.28 333.584 23.84C334.224 24.4 334.797 25.04 335.304 25.76C335.837 26.48 336.277 27.2933 336.624 28.2C336.997 29.1067 337.184 30.12 337.184 31.24C337.184 32.4133 336.997 33.52 336.624 34.56C336.25 35.5733 335.664 36.4667 334.864 37.24C334.09 37.9867 333.09 38.5733 331.864 39C330.637 39.4533 329.184 39.68 327.504 39.68C326.49 39.68 325.544 39.6267 324.664 39.52C323.81 39.44 323.05 39.3333 322.384 39.2C321.61 39.0667 320.904 38.9067 320.264 38.72V30.72Z" fill="white"/>
<path d="M134.8 78.8C133.84 77.9467 132.64 77.3067 131.2 76.88C129.76 76.4 128.347 76.16 126.96 76.16C125.413 76.16 124 76.4533 122.72 77.04C121.44 77.5733 120.32 78.3467 119.36 79.36C118.453 80.32 117.733 81.4933 117.2 82.88C116.667 84.2667 116.4 85.76 116.4 87.36C116.4 88.96 116.693 90.4533 117.28 91.84C117.867 93.2267 118.667 94.4267 119.68 95.44C120.693 96.4 121.867 97.1733 123.2 97.76C124.587 98.2933 126.053 98.56 127.6 98.56C129.413 98.56 131.067 98.1867 132.56 97.44C134.053 96.64 135.333 95.5733 136.4 94.24H131.6V83.04H152.16V100.8C150.933 102.987 149.467 104.987 147.76 106.8C146.053 108.56 144.133 110.08 142 111.36C139.92 112.64 137.653 113.627 135.2 114.32C132.747 115.013 130.213 115.36 127.6 115.36C123.76 115.36 120.133 114.64 116.72 113.2C113.307 111.76 110.32 109.787 107.76 107.28C105.253 104.773 103.253 101.813 101.76 98.4C100.32 94.9867 99.6 91.3067 99.6 87.36C99.6 83.52 100.293 79.8933 101.68 76.48C103.067 73.0667 104.96 70.1067 107.36 67.6C109.813 65.04 112.693 63.04 116 61.6C119.36 60.1067 122.96 59.36 126.8 59.36C129.787 59.36 132.373 59.6533 134.56 60.24C136.747 60.8267 138.587 61.4933 140.08 62.24C141.84 63.0933 143.307 64.0267 144.48 65.04L134.8 78.8ZM135.6 68.48C134.907 68.16 134.133 67.8933 133.28 67.68C132.533 67.4667 131.653 67.28 130.64 67.12C129.627 66.96 128.507 66.88 127.28 66.88C124.453 66.88 121.813 67.3867 119.36 68.4C116.907 69.4133 114.773 70.8267 112.96 72.64C111.147 74.4 109.707 76.5333 108.64 79.04C107.627 81.5467 107.12 84.32 107.12 87.36C107.12 90.4 107.653 93.1733 108.72 95.68C109.787 98.1867 111.253 100.347 113.12 102.16C114.987 103.92 117.147 105.307 119.6 106.32C122.107 107.333 124.773 107.84 127.6 107.84C131.28 107.84 134.613 106.987 137.6 105.28C140.587 103.52 143.013 101.2 144.88 98.32V87.84H136.4V89.76H142.8V97.76C141.147 100.213 138.987 102.16 136.32 103.6C133.707 105.04 130.8 105.76 127.6 105.76C125.04 105.76 122.64 105.333 120.4 104.48C118.213 103.573 116.267 102.32 114.56 100.72C112.907 99.0667 111.6 97.12 110.64 94.88C109.68 92.5867 109.2 90.08 109.2 87.36C109.2 84.64 109.653 82.16 110.56 79.92C111.52 77.6267 112.8 75.68 114.4 74.08C116.053 72.4267 117.973 71.1733 120.16 70.32C122.347 69.4133 124.72 68.96 127.28 68.96C128.24 68.96 129.147 69.04 130 69.2C130.853 69.36 131.6 69.52 132.24 69.68C132.987 69.8933 133.68 70.1067 134.32 70.32L135.6 68.48ZM190.821 95.44C192.901 95.44 194.928 95.2267 196.901 94.8L204.501 107.6H206.981L198.981 94.16C201.861 93.1467 204.155 91.6 205.861 89.52C207.568 87.3867 208.421 84.64 208.421 81.28C208.421 78.9333 207.968 76.88 207.061 75.12C206.155 73.36 204.901 71.8933 203.301 70.72C201.755 69.4933 199.915 68.5867 197.781 68C195.648 67.36 193.328 67.04 190.821 67.04H182.181V107.6H184.261V95.44H190.821ZM184.261 93.52V68.96H190.821C195.675 68.96 199.461 70.0267 202.181 72.16C204.955 74.2933 206.341 77.3333 206.341 81.28C206.341 85.2267 204.955 88.2667 202.181 90.4C199.461 92.48 195.675 93.52 190.821 93.52H184.261ZM174.181 60.64H192.581C195.995 60.64 199.141 61.0933 202.021 62C204.955 62.9067 207.488 64.24 209.621 66C211.755 67.76 213.408 69.9467 214.581 72.56C215.808 75.12 216.421 78.08 216.421 81.44C216.421 84.1067 216.048 86.3733 215.301 88.24C214.555 90.1067 213.728 91.6533 212.821 92.88C211.755 94.2667 210.555 95.44 209.221 96.4L219.221 114H199.221L191.221 100.48V114H174.181V60.64ZM191.221 86.88H192.101C194.128 86.88 195.835 86.4267 197.221 85.52C198.661 84.6133 199.381 83.0933 199.381 80.96C199.381 78.8267 198.661 77.3067 197.221 76.4C195.835 75.4933 194.128 75.04 192.101 75.04H191.221V86.88ZM260.262 115.36C256.902 115.36 253.862 114.933 251.142 114.08C248.422 113.227 246.102 111.947 244.182 110.24C242.262 108.533 240.769 106.373 239.702 103.76C238.689 101.147 238.182 98.08 238.182 94.56V60.64H255.222V93.84C255.222 95.7067 255.595 97.1467 256.342 98.16C257.142 99.12 258.449 99.6 260.262 99.6C262.075 99.6 263.355 99.12 264.102 98.16C264.902 97.1467 265.302 95.7067 265.302 93.84V60.64H282.422V94.56C282.422 98.08 281.889 101.147 280.822 103.76C279.809 106.373 278.315 108.533 276.342 110.24C274.422 111.947 272.102 113.227 269.382 114.08C266.662 114.933 263.622 115.36 260.262 115.36ZM260.262 105.76C252.262 105.76 248.262 101.84 248.262 94V67.04H246.182V94C246.182 98.48 247.382 101.92 249.782 104.32C252.235 106.667 255.729 107.84 260.262 107.84C264.795 107.84 268.289 106.667 270.742 104.32C273.195 101.92 274.422 98.48 274.422 94V67.04H272.262V94C272.262 101.84 268.262 105.76 260.262 105.76ZM305.397 60.64H326.277C328.944 60.64 331.37 60.96 333.557 61.6C335.797 62.1867 337.69 63.0933 339.237 64.32C340.837 65.4933 342.064 66.9867 342.917 68.8C343.824 70.56 344.277 72.64 344.277 75.04C344.277 76.7467 344.064 78.2133 343.637 79.44C343.21 80.6133 342.757 81.6 342.277 82.4C341.69 83.36 341.024 84.16 340.277 84.8C341.45 85.5467 342.517 86.5067 343.477 87.68C344.277 88.6933 344.997 89.9733 345.637 91.52C346.33 93.0667 346.677 94.96 346.677 97.2C346.677 99.76 346.224 102.08 345.317 104.16C344.41 106.24 343.104 108.027 341.397 109.52C339.744 110.96 337.69 112.08 335.237 112.88C332.837 113.627 330.144 114 327.157 114H305.397V60.64ZM323.797 101.44C327.85 101.44 329.877 99.8933 329.877 96.8C329.877 93.7067 327.85 92.16 323.797 92.16H321.877V101.44H323.797ZM327.797 76.88C327.797 74.4267 326.464 73.2 323.797 73.2H321.877V80.56H323.797C326.464 80.56 327.797 79.3333 327.797 76.88ZM324.917 107.6C329.61 107.6 333.077 106.587 335.317 104.56C337.557 102.533 338.677 99.84 338.677 96.48C338.677 94.2933 338.197 92.56 337.237 91.28C336.33 89.9467 335.344 88.9067 334.277 88.16C332.944 87.3067 331.477 86.72 329.877 86.4C331.157 86.0267 332.304 85.44 333.317 84.64C334.224 83.9467 335.024 83.0133 335.717 81.84C336.464 80.6133 336.837 79.0667 336.837 77.2C336.837 73.84 335.77 71.3067 333.637 69.6C331.504 67.8933 328.597 67.04 324.917 67.04H313.397V107.6H324.917ZM315.477 105.68V87.36H324.837C326.49 87.36 328.01 87.5467 329.397 87.92C330.837 88.24 332.09 88.7733 333.157 89.52C334.224 90.2133 335.05 91.1467 335.637 92.32C336.277 93.4933 336.597 94.88 336.597 96.48C336.597 99.7333 335.504 102.08 333.317 103.52C331.184 104.96 328.357 105.68 324.837 105.68H315.477ZM315.477 85.44V68.96H324.917C328.384 68.96 330.864 69.7333 332.357 71.28C333.904 72.7733 334.677 74.7467 334.677 77.2C334.677 79.6533 333.904 81.6533 332.357 83.2C330.864 84.6933 328.384 85.44 324.917 85.44H315.477Z" fill="white"/>
<path d="M100.8 128.64H114.88L128.8 149.12L142.64 128.64H156.72V182H139.68V162.8L128.8 178.8L117.84 162.8V182H100.8V128.64ZM110.88 175.6V138.88L128.8 164.96L146.64 138.88V175.6H148.72V135.04H146.64L128.8 161.36L110.88 135.04H108.8V175.6H110.88ZM188.524 183.36C185.164 183.36 182.124 182.933 179.404 182.08C176.684 181.227 174.364 179.947 172.444 178.24C170.524 176.533 169.031 174.373 167.964 171.76C166.951 169.147 166.444 166.08 166.444 162.56V128.64H183.484V161.84C183.484 163.707 183.858 165.147 184.604 166.16C185.404 167.12 186.711 167.6 188.524 167.6C190.338 167.6 191.618 167.12 192.364 166.16C193.164 165.147 193.564 163.707 193.564 161.84V128.64H210.684V162.56C210.684 166.08 210.151 169.147 209.084 171.76C208.071 174.373 206.578 176.533 204.604 178.24C202.684 179.947 200.364 181.227 197.644 182.08C194.924 182.933 191.884 183.36 188.524 183.36ZM188.524 173.76C180.524 173.76 176.524 169.84 176.524 162V135.04H174.444V162C174.444 166.48 175.644 169.92 178.044 172.32C180.498 174.667 183.991 175.84 188.524 175.84C193.058 175.84 196.551 174.667 199.004 172.32C201.458 169.92 202.684 166.48 202.684 162V135.04H200.524V162C200.524 169.84 196.524 173.76 188.524 173.76ZM176.524 117.44H186.764V125.52H176.524V117.44ZM183.404 120.64H179.884V122.32H183.404V120.64ZM190.284 117.44H200.524V125.52H190.284V117.44ZM197.164 120.64H193.644V122.32H197.164V120.64ZM220.459 128.64H237.499V146.8H247.019V128.64H264.139V182H247.019V162.24H237.499V182H220.459V128.64ZM230.539 175.6V155.36H254.059V175.6H256.139V135.04H254.059V153.44H230.539V135.04H228.459V175.6H230.539ZM274.156 128.64H291.916V168H306.636V182H274.156V128.64ZM302.156 175.6V173.68H284.236V135.04H282.156V175.6H302.156ZM313.869 128.64H345.309V142.64H330.909V148.56H345.069V161.84H330.909V168H345.869V182H313.869V128.64ZM339.949 175.6V173.68H323.949V156.16H339.149V154.24H323.949V136.96H339.949V135.04H321.869V175.6H339.949Z" fill="white"/>
</g>
<defs>
<clipPath id="clip0">
<rect width="354" height="190" fill="white"/>
</clipPath>
</defs>
</svg>
