<svg width="694" height="752" viewBox="0 0 694 752" fill="none" xmlns="http://www.w3.org/2000/svg">
<g clip-path="url(#clip0)">
<rect width="694" height="752" fill="white"/>
<rect y="8" width="694" height="734" fill="#FFFDFD"/>
<rect x="20" y="330" width="656" height="217" fill="#555216"/>
<path d="M11 545.5L10 -2.52708e-05" stroke="#555216" stroke-width="20"/>
<path d="M684 547L684 0" stroke="#555216" stroke-width="20"/>
<path d="M0 8.5L694 8.5" stroke="#555216" stroke-width="20"/>
<path d="M453 213H597L657.5 206L679.5 202.5L676 340H453V213Z" fill="#555216"/>
<path d="M343.105 460.98C241.106 460.98 144.148 468.54 15 547.5H487.767C487.767 547.5 491.645 524.26 542.451 511.66C616.139 500.46 648.717 460.98 656.086 441.66C663.454 422.34 647.553 412.26 642.124 404.98C638.581 400.23 603.341 388.367 583.561 383.42C574.124 379.967 518.728 376.182 508.322 363.26C498.626 351.22 505.614 342.725 508.322 333.86C516.078 308.468 558 267.5 599 261C640 254.5 676 213 676 213C676 213 639.5 237 586.5 244C533.5 251 498.07 299.34 483.888 321.5C469.706 343.66 468.957 364.673 483.888 383.42C496.753 399.572 530.04 400.5 542.839 404.98C573.685 415.778 567.01 432.42 563.782 441.66C555.094 466.524 475.744 469.1 343.105 460.98Z" fill="#FFFDFD"/>
<g filter="url(#filter0_d)">
<path d="M472.302 159L495.294 187.733L485.072 191.597H465.581L449.311 187.733L472.302 159Z" fill="#555216"/>
<path d="M477.203 175.635L500.195 204.368L485.548 211.089H466.057L442.393 199.327L477.203 175.635Z" fill="#555216"/>
<path d="M478.015 189.245L503.556 219.826L486.417 225.875L463.901 222.011L440.377 216.97L478.015 189.245Z" fill="#555216"/>
<path d="M472.638 204.031L498.179 234.613L481.04 240.662L458.524 236.797L435 231.756L472.638 204.031Z" fill="#555216"/>
</g>
<g filter="url(#filter1_d)">
<path d="M432.352 166L484.343 230.974L461.229 239.713H417.153L380.36 230.974L432.352 166Z" fill="#555216"/>
<path d="M443.434 203.616L495.425 268.59L462.305 283.788H418.229L364.718 257.191L443.434 203.616Z" fill="#555216"/>
<path d="M445.271 234.393L503.025 303.546L464.269 317.225L413.354 308.486L360.159 297.087L445.271 234.393Z" fill="#555216"/>
<path d="M433.112 267.83L490.866 336.983L452.11 350.662L401.195 341.923L348 330.524L433.112 267.83Z" fill="#555216"/>
</g>
<g filter="url(#filter2_d)">
<path d="M616.682 150L638.059 176.715L628.555 180.308H610.433L595.305 176.715L616.682 150Z" fill="#555216"/>
<path d="M621.239 165.466L642.616 192.181L628.998 198.43H610.876L588.874 187.494L621.239 165.466Z" fill="#555216"/>
<path d="M621.994 178.121L645.741 206.554L629.806 212.178L608.871 208.585L586.999 203.898L621.994 178.121Z" fill="#555216"/>
<path d="M616.995 191.869L640.741 220.302L624.806 225.926L603.872 222.333L582 217.646L616.995 191.869Z" fill="#555216"/>
</g>
<g filter="url(#filter3_d)">
<path d="M561.867 110.736L595.069 152.228L580.309 157.809H552.162L528.666 152.228L561.867 110.736Z" fill="#555216"/>
<path d="M568.945 134.758L602.147 176.25L580.996 185.956H552.849L518.676 168.971L568.945 134.758Z" fill="#555216"/>
<path d="M570.118 154.412L607 198.574L582.25 207.309L549.735 201.728L515.765 194.449L570.118 154.412Z" fill="#555216"/>
<path d="M562.353 175.765L599.235 219.926L574.485 228.662L541.971 223.081L508 215.801L562.353 175.765Z" fill="#555216"/>
</g>
<g filter="url(#filter4_d)">
<path d="M19.9927 327.118C28.5704 345.741 55.4022 395.737 88.5365 407.438C121.671 419.14 162.171 424.752 201.703 423.119C241.236 421.487 318.497 407.521 342.763 393.449C367.028 379.376 409.689 346.579 405.389 327.779L179.61 327.392L19.9927 327.118Z" fill="#FFFDFD"/>
</g>
<g filter="url(#filter5_d)">
<path d="M571.294 255L588.733 276.794L580.98 279.725H566.196L553.855 276.794L571.294 255Z" fill="#555216"/>
<path d="M575.011 267.618L592.451 289.412L581.341 294.51H566.557L548.608 285.588L575.011 267.618Z" fill="#555216"/>
<path d="M575.628 277.941L595 301.137L582 305.725L564.922 302.794L547.079 298.971L575.628 277.941Z" fill="#555216"/>
<path d="M571.549 289.157L590.921 312.353L577.921 316.941L560.843 314.01L543 310.186L571.549 289.157Z" fill="#555216"/>
</g>
<g filter="url(#filter6_d)">
<path d="M594.294 471L611.733 492.794L603.98 495.725H589.196L576.855 492.794L594.294 471Z" fill="#555216"/>
<path d="M598.011 483.618L615.451 505.412L604.341 510.51H589.557L571.608 501.588L598.011 483.618Z" fill="#555216"/>
<path d="M598.628 493.941L618 517.137L605 521.725L587.922 518.794L570.079 514.971L598.628 493.941Z" fill="#555216"/>
<path d="M594.549 505.157L613.921 528.353L600.921 532.941L583.843 530.01L566 526.186L594.549 505.157Z" fill="#555216"/>
</g>
<g filter="url(#filter7_d)">
<path d="M615.059 241L645.913 279.559L632.196 284.745H606.039L584.204 279.559L615.059 241Z" fill="#555216"/>
<path d="M621.636 263.323L652.49 301.882L632.834 310.902H606.678L574.921 295.118L621.636 263.323Z" fill="#555216"/>
<path d="M622.726 281.588L657 322.627L634 330.745L603.784 325.559L572.216 318.794L622.726 281.588Z" fill="#555216"/>
<path d="M615.51 301.431L649.784 342.47L626.784 350.588L596.569 345.402L565 338.637L615.51 301.431Z" fill="#555216"/>
</g>
<g filter="url(#filter8_d)">
<path d="M505.294 377L522.733 398.794L514.98 401.725H500.196L487.855 398.794L505.294 377Z" fill="#555216"/>
<path d="M509.011 389.618L526.451 411.412L515.341 416.51H500.557L482.608 407.588L509.011 389.618Z" fill="#555216"/>
<path d="M509.628 399.941L529 423.137L516 427.725L498.922 424.794L481.079 420.971L509.628 399.941Z" fill="#555216"/>
<path d="M505.549 411.157L524.921 434.353L511.921 438.941L494.843 436.01L477 432.186L505.549 411.157Z" fill="#555216"/>
</g>
<g filter="url(#filter9_d)">
<path d="M404.294 325L421.733 346.794L413.98 349.725H399.196L386.855 346.794L404.294 325Z" fill="#555216"/>
<path d="M408.011 337.618L425.451 359.412L414.341 364.51H399.557L381.608 355.588L408.011 337.618Z" fill="#555216"/>
<path d="M408.628 347.941L428 371.137L415 375.725L397.922 372.794L380.079 368.971L408.628 347.941Z" fill="#555216"/>
<path d="M404.549 359.157L423.921 382.353L410.921 386.941L393.843 384.01L376 380.186L404.549 359.157Z" fill="#555216"/>
</g>
<path d="M184.835 174.768L159.511 192.917C158.506 193.638 157.57 194.449 156.715 195.342L135.5 217.5L123.471 233.85C122.908 234.616 122.4 235.42 121.951 236.258L102 273.5L105.894 274.279C110.818 275.263 114.248 279.747 113.91 284.757L102 461.5H188V176.394C188 174.766 186.158 173.82 184.835 174.768Z" fill="#555216"/>
<path d="M188.165 174.768L213.489 192.917C214.494 193.638 215.43 194.449 216.285 195.342L237.5 217.5L249.529 233.85C250.092 234.616 250.6 235.42 251.049 236.258L271 273.5L267.106 274.279C262.182 275.263 258.752 279.747 259.09 284.757L271 461.5H185V176.394C185 174.766 186.842 173.82 188.165 174.768Z" fill="#555216"/>
<path d="M118.768 162.126L188.241 231.599L175.513 244.327L106.04 174.854L105.875 174.689L105.642 174.709L79.8888 176.987L15.7071 112.805L55.3051 73.2072L119.498 137.4L118.622 161.754L118.614 161.972L118.768 162.126Z" fill="#555216" stroke="#FFFDFD"/>
<path d="M118.768 326.227L188.241 256.753L175.513 244.026L106.04 313.499L105.875 313.664L105.642 313.643L79.8888 311.366L15.7071 375.547L55.3051 415.145L119.498 350.953L118.622 326.598L118.614 326.381L118.768 326.227Z" fill="#555216" stroke="#FFFDFD"/>
<path d="M257.584 162.126L188.111 231.599L200.839 244.327L270.312 174.854L270.477 174.689L270.71 174.709L296.464 176.987L360.645 112.805L321.047 73.2072L256.855 137.4L257.731 161.754L257.738 161.972L257.584 162.126Z" fill="#555216" stroke="#FFFDFD"/>
<path d="M257.584 326.227L188.111 256.753L200.839 244.026L270.312 313.499L270.477 313.664L270.71 313.643L296.464 311.366L360.645 375.547L321.047 415.145L256.855 350.953L257.731 326.598L257.738 326.381L257.584 326.227Z" fill="#555216" stroke="#FFFDFD"/>
<path d="M75.6402 667.4C74.5602 666.44 73.2102 665.72 71.5902 665.24C69.9702 664.7 68.3802 664.43 66.8202 664.43C65.0802 664.43 63.4902 664.76 62.0502 665.42C60.6102 666.02 59.3502 666.89 58.2702 668.03C57.2502 669.11 56.4402 670.43 55.8402 671.99C55.2402 673.55 54.9402 675.23 54.9402 677.03C54.9402 678.83 55.2702 680.51 55.9302 682.07C56.5902 683.63 57.4902 684.98 58.6302 686.12C59.7702 687.2 61.0902 688.07 62.5902 688.73C64.1502 689.33 65.8002 689.63 67.5402 689.63C69.5802 689.63 71.4402 689.21 73.1202 688.37C74.8002 687.47 76.2402 686.27 77.4402 684.77H72.0402V672.17H95.1702V692.15C93.7902 694.61 92.1402 696.86 90.2202 698.9C88.3002 700.88 86.1402 702.59 83.7402 704.03C81.4002 705.47 78.8502 706.58 76.0902 707.36C73.3302 708.14 70.4802 708.53 67.5402 708.53C63.2202 708.53 59.1402 707.72 55.3002 706.1C51.4602 704.48 48.1002 702.26 45.2202 699.44C42.4002 696.62 40.1502 693.29 38.4702 689.45C36.8502 685.61 36.0402 681.47 36.0402 677.03C36.0402 672.71 36.8202 668.63 38.3802 664.79C39.9402 660.95 42.0702 657.62 44.7702 654.8C47.5302 651.92 50.7702 649.67 54.4902 648.05C58.2702 646.37 62.3202 645.53 66.6402 645.53C70.0002 645.53 72.9102 645.86 75.3702 646.52C77.8302 647.18 79.9002 647.93 81.5802 648.77C83.5602 649.73 85.2102 650.78 86.5302 651.92L75.6402 667.4ZM76.5402 655.79C75.7602 655.43 74.8902 655.13 73.9302 654.89C73.0902 654.65 72.1002 654.44 70.9602 654.26C69.8202 654.08 68.5602 653.99 67.1802 653.99C64.0002 653.99 61.0302 654.56 58.2702 655.7C55.5102 656.84 53.1102 658.43 51.0702 660.47C49.0302 662.45 47.4102 664.85 46.2102 667.67C45.0702 670.49 44.5002 673.61 44.5002 677.03C44.5002 680.45 45.1002 683.57 46.3002 686.39C47.5002 689.21 49.1502 691.64 51.2502 693.68C53.3502 695.66 55.7802 697.22 58.5402 698.36C61.3602 699.5 64.3602 700.07 67.5402 700.07C71.6802 700.07 75.4302 699.11 78.7902 697.19C82.1502 695.21 84.8802 692.6 86.9802 689.36V677.57H77.4402V679.73H84.6402V688.73C82.7802 691.49 80.3502 693.68 77.3502 695.3C74.4102 696.92 71.1402 697.73 67.5402 697.73C64.6602 697.73 61.9602 697.25 59.4402 696.29C56.9802 695.27 54.7902 693.86 52.8702 692.06C51.0102 690.2 49.5402 688.01 48.4602 685.49C47.3802 682.91 46.8402 680.09 46.8402 677.03C46.8402 673.97 47.3502 671.18 48.3702 668.66C49.4502 666.08 50.8902 663.89 52.6902 662.09C54.5502 660.23 56.7102 658.82 59.1702 657.86C61.6302 656.84 64.3002 656.33 67.1802 656.33C68.2602 656.33 69.2802 656.42 70.2402 656.6C71.2002 656.78 72.0402 656.96 72.7602 657.14C73.6002 657.38 74.3802 657.62 75.1002 657.86L76.5402 655.79ZM136.864 686.12C139.204 686.12 141.484 685.88 143.704 685.4L152.254 699.8H155.044L146.044 684.68C149.284 683.54 151.864 681.8 153.784 679.46C155.704 677.06 156.664 673.97 156.664 670.19C156.664 667.55 156.154 665.24 155.134 663.26C154.114 661.28 152.704 659.63 150.904 658.31C149.164 656.93 147.094 655.91 144.694 655.25C142.294 654.53 139.684 654.17 136.864 654.17H127.144V699.8H129.484V686.12H136.864ZM129.484 683.96V656.33H136.864C142.324 656.33 146.584 657.53 149.644 659.93C152.764 662.33 154.324 665.75 154.324 670.19C154.324 674.63 152.764 678.05 149.644 680.45C146.584 682.79 142.324 683.96 136.864 683.96H129.484ZM118.144 646.97H138.844C142.684 646.97 146.224 647.48 149.464 648.5C152.764 649.52 155.614 651.02 158.014 653C160.414 654.98 162.274 657.44 163.594 660.38C164.974 663.26 165.664 666.59 165.664 670.37C165.664 673.37 165.244 675.92 164.404 678.02C163.564 680.12 162.634 681.86 161.614 683.24C160.414 684.8 159.064 686.12 157.564 687.2L168.814 707H146.314L137.314 691.79V707H118.144V646.97ZM137.314 676.49H138.304C140.584 676.49 142.504 675.98 144.064 674.96C145.684 673.94 146.494 672.23 146.494 669.83C146.494 667.43 145.684 665.72 144.064 664.7C142.504 663.68 140.584 663.17 138.304 663.17H137.314V676.49ZM213.185 708.53C209.405 708.53 205.985 708.05 202.925 707.09C199.865 706.13 197.255 704.69 195.095 702.77C192.935 700.85 191.255 698.42 190.055 695.48C188.915 692.54 188.345 689.09 188.345 685.13V646.97H207.515V684.32C207.515 686.42 207.935 688.04 208.775 689.18C209.675 690.26 211.145 690.8 213.185 690.8C215.225 690.8 216.665 690.26 217.505 689.18C218.405 688.04 218.855 686.42 218.855 684.32V646.97H238.115V685.13C238.115 689.09 237.515 692.54 236.315 695.48C235.175 698.42 233.495 700.85 231.275 702.77C229.115 704.69 226.505 706.13 223.445 707.09C220.385 708.05 216.965 708.53 213.185 708.53ZM213.185 697.73C204.185 697.73 199.685 693.32 199.685 684.5V654.17H197.345V684.5C197.345 689.54 198.695 693.41 201.395 696.11C204.155 698.75 208.085 700.07 213.185 700.07C218.285 700.07 222.215 698.75 224.975 696.11C227.735 693.41 229.115 689.54 229.115 684.5V654.17H226.685V684.5C226.685 693.32 222.185 697.73 213.185 697.73ZM262.162 646.97H285.652C288.652 646.97 291.382 647.33 293.842 648.05C296.362 648.71 298.492 649.73 300.232 651.11C302.032 652.43 303.412 654.11 304.372 656.15C305.392 658.13 305.902 660.47 305.902 663.17C305.902 665.09 305.662 666.74 305.182 668.12C304.702 669.44 304.192 670.55 303.652 671.45C302.992 672.53 302.242 673.43 301.402 674.15C302.722 674.99 303.922 676.07 305.002 677.39C305.902 678.53 306.712 679.97 307.432 681.71C308.212 683.45 308.602 685.58 308.602 688.1C308.602 690.98 308.092 693.59 307.072 695.93C306.052 698.27 304.582 700.28 302.662 701.96C300.802 703.58 298.492 704.84 295.732 705.74C293.032 706.58 290.002 707 286.642 707H262.162V646.97ZM282.862 692.87C287.422 692.87 289.702 691.13 289.702 687.65C289.702 684.17 287.422 682.43 282.862 682.43H280.702V692.87H282.862ZM287.362 665.24C287.362 662.48 285.862 661.1 282.862 661.1H280.702V669.38H282.862C285.862 669.38 287.362 668 287.362 665.24ZM284.122 699.8C289.402 699.8 293.302 698.66 295.822 696.38C298.342 694.1 299.602 691.07 299.602 687.29C299.602 684.83 299.062 682.88 297.982 681.44C296.962 679.94 295.852 678.77 294.652 677.93C293.152 676.97 291.502 676.31 289.702 675.95C291.142 675.53 292.432 674.87 293.572 673.97C294.592 673.19 295.492 672.14 296.272 670.82C297.112 669.44 297.532 667.7 297.532 665.6C297.532 661.82 296.332 658.97 293.932 657.05C291.532 655.13 288.262 654.17 284.122 654.17H271.162V699.8H284.122ZM273.502 697.64V677.03H284.032C285.892 677.03 287.602 677.24 289.162 677.66C290.782 678.02 292.192 678.62 293.392 679.46C294.592 680.24 295.522 681.29 296.182 682.61C296.902 683.93 297.262 685.49 297.262 687.29C297.262 690.95 296.032 693.59 293.572 695.21C291.172 696.83 287.992 697.64 284.032 697.64H273.502ZM273.502 674.87V656.33H284.122C288.022 656.33 290.812 657.2 292.492 658.94C294.232 660.62 295.102 662.84 295.102 665.6C295.102 668.36 294.232 670.61 292.492 672.35C290.812 674.03 288.022 674.87 284.122 674.87H273.502ZM330.611 646.97H346.451L362.111 670.01L377.681 646.97H393.521V707H374.351V685.4L362.111 703.4L349.781 685.4V707H330.611V646.97ZM341.951 699.8V658.49L362.111 687.83L382.181 658.49V699.8H384.521V654.17H382.181L362.111 683.78L341.951 654.17H339.611V699.8H341.951ZM442.351 708.53C438.571 708.53 435.151 708.05 432.091 707.09C429.031 706.13 426.421 704.69 424.261 702.77C422.101 700.85 420.421 698.42 419.221 695.48C418.081 692.54 417.511 689.09 417.511 685.13V646.97H436.681V684.32C436.681 686.42 437.101 688.04 437.941 689.18C438.841 690.26 440.311 690.8 442.351 690.8C444.391 690.8 445.831 690.26 446.671 689.18C447.571 688.04 448.021 686.42 448.021 684.32V646.97H467.281V685.13C467.281 689.09 466.681 692.54 465.481 695.48C464.341 698.42 462.661 700.85 460.441 702.77C458.281 704.69 455.671 706.13 452.611 707.09C449.551 708.05 446.131 708.53 442.351 708.53ZM442.351 697.73C433.351 697.73 428.851 693.32 428.851 684.5V654.17H426.511V684.5C426.511 689.54 427.861 693.41 430.561 696.11C433.321 698.75 437.251 700.07 442.351 700.07C447.451 700.07 451.381 698.75 454.141 696.11C456.901 693.41 458.281 689.54 458.281 684.5V654.17H455.851V684.5C455.851 693.32 451.351 697.73 442.351 697.73ZM428.851 634.37H440.371V643.46H428.851V634.37ZM436.591 637.97H432.631V639.86H436.591V637.97ZM444.331 634.37H455.851V643.46H444.331V634.37ZM452.071 637.97H448.111V639.86H452.071V637.97ZM491.328 646.97H510.498V667.4H521.208V646.97H540.468V707H521.208V684.77H510.498V707H491.328V646.97ZM502.668 699.8V677.03H529.128V699.8H531.468V654.17H529.128V674.87H502.668V654.17H500.328V699.8H502.668ZM564.787 646.97H584.767V691.25H601.327V707H564.787V646.97ZM596.287 699.8V697.64H576.127V654.17H573.787V699.8H596.287ZM622.513 646.97H657.883V662.72H641.683V669.38H657.613V684.32H641.683V691.25H658.513V707H622.513V646.97ZM651.853 699.8V697.64H633.853V677.93H650.953V675.77H633.853V656.33H651.853V654.17H631.513V699.8H651.853Z" fill="#555216"/>
<path d="M118.067 569.98H130.847V583.6H137.987V569.98H150.827V610H137.987V595.18H130.847V610H118.067V569.98ZM125.627 605.2V590.02H143.267V605.2H144.827V574.78H143.267V588.58H125.627V574.78H124.067V605.2H125.627ZM196.919 569.98H206.519L221.699 610H209.099L207.779 606.4H195.659L194.339 610H181.739L196.919 569.98ZM204.419 597.58L201.719 590.56L199.019 597.58H204.419ZM190.679 605.2L191.819 602.2H211.619L212.759 605.2H214.439L202.859 574.78H200.579L188.999 605.2H190.679ZM201.719 576.22L211.079 600.76H192.359L201.719 576.22ZM268.978 611.02C266.458 611.02 264.178 610.7 262.138 610.06C260.098 609.42 258.358 608.46 256.918 607.18C255.478 605.9 254.358 604.28 253.558 602.32C252.798 600.36 252.418 598.06 252.418 595.42V569.98H265.198V594.88C265.198 596.28 265.478 597.36 266.038 598.12C266.638 598.84 267.618 599.2 268.978 599.2C270.338 599.2 271.298 598.84 271.858 598.12C272.458 597.36 272.758 596.28 272.758 594.88V569.98H285.598V595.42C285.598 598.06 285.198 600.36 284.398 602.32C283.638 604.28 282.518 605.9 281.038 607.18C279.598 608.46 277.858 609.42 275.818 610.06C273.778 610.7 271.498 611.02 268.978 611.02ZM268.978 603.82C262.978 603.82 259.978 600.88 259.978 595V574.78H258.418V595C258.418 598.36 259.318 600.94 261.118 602.74C262.958 604.5 265.578 605.38 268.978 605.38C272.378 605.38 274.998 604.5 276.838 602.74C278.678 600.94 279.598 598.36 279.598 595V574.78H277.978V595C277.978 600.88 274.978 603.82 268.978 603.82ZM323.589 604.78C324.149 604.9 324.749 605 325.389 605.08C325.949 605.16 326.529 605.24 327.129 605.32C327.769 605.36 328.409 605.38 329.049 605.38C330.169 605.38 331.249 605.26 332.289 605.02C333.369 604.74 334.329 604.3 335.169 603.7C336.009 603.1 336.669 602.34 337.149 601.42C337.669 600.46 337.929 599.3 337.929 597.94C337.929 596.78 337.629 595.68 337.029 594.64C336.469 593.6 335.729 592.6 334.809 591.64C333.929 590.68 332.969 589.76 331.929 588.88C330.929 588 329.969 587.12 329.049 586.24C328.169 585.32 327.429 584.42 326.829 583.54C326.269 582.62 325.989 581.68 325.989 580.72C325.989 579.28 326.449 578.18 327.369 577.42C328.289 576.62 329.769 576.22 331.809 576.22C332.129 576.22 332.449 576.24 332.769 576.28C333.129 576.28 333.469 576.3 333.789 576.34C334.109 576.38 334.429 576.4 334.749 576.4V574.84C334.469 574.84 334.169 574.82 333.849 574.78C333.569 574.74 333.249 574.72 332.889 574.72C332.569 574.68 332.229 574.66 331.869 574.66C329.709 574.66 327.929 575.16 326.529 576.16C325.129 577.12 324.429 578.64 324.429 580.72C324.429 581.84 324.709 582.9 325.269 583.9C325.869 584.86 326.609 585.82 327.489 586.78C328.409 587.7 329.369 588.6 330.369 589.48C331.409 590.36 332.369 591.26 333.249 592.18C334.169 593.06 334.909 593.98 335.469 594.94C336.069 595.9 336.369 596.9 336.369 597.94C336.369 599.86 335.709 601.32 334.389 602.32C333.109 603.32 331.329 603.82 329.049 603.82C327.689 603.82 326.449 603.72 325.329 603.52C324.729 603.44 324.149 603.34 323.589 603.22V604.78ZM318.549 597.58C319.429 597.86 320.349 598.08 321.309 598.24C322.109 598.44 323.009 598.6 324.009 598.72C325.049 598.84 326.089 598.9 327.129 598.9C328.969 598.9 329.889 598.22 329.889 596.86C329.889 596.34 329.609 595.82 329.049 595.3C328.489 594.74 327.769 594.14 326.889 593.5C326.049 592.82 325.129 592.08 324.129 591.28C323.169 590.48 322.249 589.56 321.369 588.52C320.529 587.48 319.829 586.32 319.269 585.04C318.709 583.72 318.429 582.22 318.429 580.54C318.429 578.66 318.769 577 319.449 575.56C320.129 574.12 321.069 572.92 322.269 571.96C323.469 571 324.869 570.28 326.469 569.8C328.109 569.28 329.849 569.02 331.689 569.02C332.649 569.02 333.609 569.08 334.569 569.2C335.529 569.28 336.389 569.36 337.149 569.44C338.029 569.56 338.889 569.68 339.729 569.8V581.02C339.409 580.98 339.049 580.94 338.649 580.9C338.329 580.86 337.969 580.82 337.569 580.78C337.169 580.74 336.749 580.72 336.309 580.72C336.069 580.72 335.769 580.74 335.409 580.78C335.049 580.78 334.709 580.82 334.389 580.9C334.069 580.98 333.789 581.12 333.549 581.32C333.309 581.52 333.189 581.8 333.189 582.16C333.189 582.48 333.449 582.88 333.969 583.36C334.529 583.84 335.189 584.4 335.949 585.04C336.749 585.68 337.609 586.42 338.529 587.26C339.489 588.1 340.349 589.06 341.109 590.14C341.909 591.22 342.569 592.44 343.089 593.8C343.649 595.16 343.929 596.68 343.929 598.36C343.929 600.12 343.649 601.78 343.089 603.34C342.529 604.86 341.649 606.2 340.449 607.36C339.289 608.48 337.789 609.36 335.949 610C334.109 610.68 331.929 611.02 329.409 611.02C327.889 611.02 326.469 610.94 325.149 610.78C323.869 610.66 322.729 610.5 321.729 610.3C320.569 610.1 319.509 609.86 318.549 609.58V597.58ZM429.273 580.48H418.233L422.313 569.98H447.933L434.013 599.5H447.153L443.133 610H415.353L429.273 580.48ZM440.013 605.2L440.613 603.76H426.033L439.713 574.78H425.433L424.893 576.22H437.253L423.573 605.2H440.013ZM495.501 611.02C492.981 611.02 490.701 610.7 488.661 610.06C486.621 609.42 484.881 608.46 483.441 607.18C482.001 605.9 480.881 604.28 480.081 602.32C479.321 600.36 478.941 598.06 478.941 595.42V569.98H491.721V594.88C491.721 596.28 492.001 597.36 492.561 598.12C493.161 598.84 494.141 599.2 495.501 599.2C496.861 599.2 497.821 598.84 498.381 598.12C498.981 597.36 499.281 596.28 499.281 594.88V569.98H512.121V595.42C512.121 598.06 511.721 600.36 510.921 602.32C510.161 604.28 509.041 605.9 507.561 607.18C506.121 608.46 504.381 609.42 502.341 610.06C500.301 610.7 498.021 611.02 495.501 611.02ZM495.501 603.82C489.501 603.82 486.501 600.88 486.501 595V574.78H484.941V595C484.941 598.36 485.841 600.94 487.641 602.74C489.481 604.5 492.101 605.38 495.501 605.38C498.901 605.38 501.521 604.5 503.361 602.74C505.201 600.94 506.121 598.36 506.121 595V574.78H504.501V595C504.501 600.88 501.501 603.82 495.501 603.82ZM558.633 596.08C560.193 596.08 561.713 595.92 563.193 595.6L568.893 605.2H570.753L564.753 595.12C566.913 594.36 568.633 593.2 569.913 591.64C571.193 590.04 571.833 587.98 571.833 585.46C571.833 583.7 571.493 582.16 570.813 580.84C570.133 579.52 569.193 578.42 567.993 577.54C566.833 576.62 565.453 575.94 563.853 575.5C562.253 575.02 560.513 574.78 558.633 574.78H552.153V605.2H553.713V596.08H558.633ZM553.713 594.64V576.22H558.633C562.273 576.22 565.113 577.02 567.153 578.62C569.233 580.22 570.273 582.5 570.273 585.46C570.273 588.42 569.233 590.7 567.153 592.3C565.113 593.86 562.273 594.64 558.633 594.64H553.713ZM546.153 569.98H559.953C562.513 569.98 564.873 570.32 567.033 571C569.233 571.68 571.133 572.68 572.733 574C574.333 575.32 575.573 576.96 576.453 578.92C577.373 580.84 577.833 583.06 577.833 585.58C577.833 587.58 577.553 589.28 576.993 590.68C576.433 592.08 575.813 593.24 575.133 594.16C574.333 595.2 573.433 596.08 572.433 596.8L579.933 610H564.933L558.933 599.86V610H546.153V569.98ZM558.933 589.66H559.593C561.113 589.66 562.393 589.32 563.433 588.64C564.513 587.96 565.053 586.82 565.053 585.22C565.053 583.62 564.513 582.48 563.433 581.8C562.393 581.12 561.113 580.78 559.593 580.78H558.933V589.66Z" fill="#555216"/>
<rect x="168" y="243.799" width="28" height="28" transform="rotate(-45 168 243.799)" fill="#FFFDFD"/>
</g>
<defs>
<filter id="filter0_d" x="435" y="157" width="71.5557" height="83.6617" filterUnits="userSpaceOnUse" color-interpolation-filters="sRGB">
<feFlood flood-opacity="0" result="BackgroundImageFix"/>
<feColorMatrix in="SourceAlpha" type="matrix" values="0 0 0 0 0 0 0 0 0 0 0 0 0 0 0 0 0 0 127 0"/>
<feOffset dx="2" dy="-1"/>
<feGaussianBlur stdDeviation="0.5"/>
<feColorMatrix type="matrix" values="0 0 0 0 1 0 0 0 0 1 0 0 0 0 1 0 0 0 0.5 0"/>
<feBlend mode="normal" in2="BackgroundImageFix" result="effect1_dropShadow"/>
<feBlend mode="normal" in="SourceGraphic" in2="effect1_dropShadow" result="shape"/>
</filter>
<filter id="filter1_d" x="348" y="164" width="158.025" height="186.662" filterUnits="userSpaceOnUse" color-interpolation-filters="sRGB">
<feFlood flood-opacity="0" result="BackgroundImageFix"/>
<feColorMatrix in="SourceAlpha" type="matrix" values="0 0 0 0 0 0 0 0 0 0 0 0 0 0 0 0 0 0 127 0"/>
<feOffset dx="2" dy="-1"/>
<feGaussianBlur stdDeviation="0.5"/>
<feColorMatrix type="matrix" values="0 0 0 0 1 0 0 0 0 1 0 0 0 0 1 0 0 0 0.5 0"/>
<feBlend mode="normal" in2="BackgroundImageFix" result="effect1_dropShadow"/>
<feBlend mode="normal" in="SourceGraphic" in2="effect1_dropShadow" result="shape"/>
</filter>
<filter id="filter2_d" x="582" y="148" width="66.7407" height="77.9261" filterUnits="userSpaceOnUse" color-interpolation-filters="sRGB">
<feFlood flood-opacity="0" result="BackgroundImageFix"/>
<feColorMatrix in="SourceAlpha" type="matrix" values="0 0 0 0 0 0 0 0 0 0 0 0 0 0 0 0 0 0 127 0"/>
<feOffset dx="2" dy="-1"/>
<feGaussianBlur stdDeviation="0.5"/>
<feColorMatrix type="matrix" values="0 0 0 0 1 0 0 0 0 1 0 0 0 0 1 0 0 0 0.5 0"/>
<feBlend mode="normal" in2="BackgroundImageFix" result="effect1_dropShadow"/>
<feBlend mode="normal" in="SourceGraphic" in2="effect1_dropShadow" result="shape"/>
</filter>
<filter id="filter3_d" x="508" y="108.736" width="102" height="119.926" filterUnits="userSpaceOnUse" color-interpolation-filters="sRGB">
<feFlood flood-opacity="0" result="BackgroundImageFix"/>
<feColorMatrix in="SourceAlpha" type="matrix" values="0 0 0 0 0 0 0 0 0 0 0 0 0 0 0 0 0 0 127 0"/>
<feOffset dx="2" dy="-1"/>
<feGaussianBlur stdDeviation="0.5"/>
<feColorMatrix type="matrix" values="0 0 0 0 1 0 0 0 0 1 0 0 0 0 1 0 0 0 0.5 0"/>
<feBlend mode="normal" in2="BackgroundImageFix" result="effect1_dropShadow"/>
<feBlend mode="normal" in="SourceGraphic" in2="effect1_dropShadow" result="shape"/>
</filter>
<filter id="filter4_d" x="15" y="310.5" width="391.829" height="127.797" filterUnits="userSpaceOnUse" color-interpolation-filters="sRGB">
<feFlood flood-opacity="0" result="BackgroundImageFix"/>
<feColorMatrix in="SourceAlpha" type="matrix" values="0 0 0 0 0 0 0 0 0 0 0 0 0 0 0 0 0 0 127 0"/>
<feOffset dy="4"/>
<feGaussianBlur stdDeviation="0.5"/>
<feColorMatrix type="matrix" values="0 0 0 0 1 0 0 0 0 1 0 0 0 0 1 0 0 0 0.5 0"/>
<feBlend mode="normal" in2="BackgroundImageFix" result="effect1_dropShadow"/>
<feBlend mode="normal" in="SourceGraphic" in2="effect1_dropShadow" result="shape"/>
</filter>
<filter id="filter5_d" x="543" y="253" width="55" height="63.941" filterUnits="userSpaceOnUse" color-interpolation-filters="sRGB">
<feFlood flood-opacity="0" result="BackgroundImageFix"/>
<feColorMatrix in="SourceAlpha" type="matrix" values="0 0 0 0 0 0 0 0 0 0 0 0 0 0 0 0 0 0 127 0"/>
<feOffset dx="2" dy="-1"/>
<feGaussianBlur stdDeviation="0.5"/>
<feColorMatrix type="matrix" values="0 0 0 0 1 0 0 0 0 1 0 0 0 0 1 0 0 0 0.5 0"/>
<feBlend mode="normal" in2="BackgroundImageFix" result="effect1_dropShadow"/>
<feBlend mode="normal" in="SourceGraphic" in2="effect1_dropShadow" result="shape"/>
</filter>
<filter id="filter6_d" x="566" y="469" width="55" height="63.941" filterUnits="userSpaceOnUse" color-interpolation-filters="sRGB">
<feFlood flood-opacity="0" result="BackgroundImageFix"/>
<feColorMatrix in="SourceAlpha" type="matrix" values="0 0 0 0 0 0 0 0 0 0 0 0 0 0 0 0 0 0 127 0"/>
<feOffset dx="2" dy="-1"/>
<feGaussianBlur stdDeviation="0.5"/>
<feColorMatrix type="matrix" values="0 0 0 0 1 0 0 0 0 1 0 0 0 0 1 0 0 0 0.5 0"/>
<feBlend mode="normal" in2="BackgroundImageFix" result="effect1_dropShadow"/>
<feBlend mode="normal" in="SourceGraphic" in2="effect1_dropShadow" result="shape"/>
</filter>
<filter id="filter7_d" x="565" y="239" width="95" height="111.588" filterUnits="userSpaceOnUse" color-interpolation-filters="sRGB">
<feFlood flood-opacity="0" result="BackgroundImageFix"/>
<feColorMatrix in="SourceAlpha" type="matrix" values="0 0 0 0 0 0 0 0 0 0 0 0 0 0 0 0 0 0 127 0"/>
<feOffset dx="2" dy="-1"/>
<feGaussianBlur stdDeviation="0.5"/>
<feColorMatrix type="matrix" values="0 0 0 0 1 0 0 0 0 1 0 0 0 0 1 0 0 0 0.5 0"/>
<feBlend mode="normal" in2="BackgroundImageFix" result="effect1_dropShadow"/>
<feBlend mode="normal" in="SourceGraphic" in2="effect1_dropShadow" result="shape"/>
</filter>
<filter id="filter8_d" x="477" y="375" width="55" height="63.941" filterUnits="userSpaceOnUse" color-interpolation-filters="sRGB">
<feFlood flood-opacity="0" result="BackgroundImageFix"/>
<feColorMatrix in="SourceAlpha" type="matrix" values="0 0 0 0 0 0 0 0 0 0 0 0 0 0 0 0 0 0 127 0"/>
<feOffset dx="2" dy="-1"/>
<feGaussianBlur stdDeviation="0.5"/>
<feColorMatrix type="matrix" values="0 0 0 0 1 0 0 0 0 1 0 0 0 0 1 0 0 0 0.5 0"/>
<feBlend mode="normal" in2="BackgroundImageFix" result="effect1_dropShadow"/>
<feBlend mode="normal" in="SourceGraphic" in2="effect1_dropShadow" result="shape"/>
</filter>
<filter id="filter9_d" x="376" y="323" width="55" height="63.941" filterUnits="userSpaceOnUse" color-interpolation-filters="sRGB">
<feFlood flood-opacity="0" result="BackgroundImageFix"/>
<feColorMatrix in="SourceAlpha" type="matrix" values="0 0 0 0 0 0 0 0 0 0 0 0 0 0 0 0 0 0 127 0"/>
<feOffset dx="2" dy="-1"/>
<feGaussianBlur stdDeviation="0.5"/>
<feColorMatrix type="matrix" values="0 0 0 0 1 0 0 0 0 1 0 0 0 0 1 0 0 0 0.5 0"/>
<feBlend mode="normal" in2="BackgroundImageFix" result="effect1_dropShadow"/>
<feBlend mode="normal" in="SourceGraphic" in2="effect1_dropShadow" result="shape"/>
</filter>
<clipPath id="clip0">
<rect width="694" height="752" fill="white"/>
</clipPath>
</defs>
</svg>
