<svg width="476" height="211" viewBox="0 0 476 211" fill="none" xmlns="http://www.w3.org/2000/svg">
<g clip-path="url(#clip0)">
<rect width="476" height="211" fill="#FFFDFD"/>
<g filter="url(#filter0_d)">
<path d="M310.46 98V53H320.48V72.98H330.5V53H340.46V98H330.5V78.02H320.48V98H310.46ZM350.48 98V63.02C350.48 60.26 351.46 57.9 353.42 55.94C355.42 53.98 357.78 53 360.5 53H370.52C373.24 53 375.58 54 377.54 56C379.5 57.96 380.48 60.3 380.48 63.02V98H370.52V78.02H360.5V98H350.48ZM360.5 72.98H370.52V63.02C370.52 61.62 370.02 60.44 369.02 59.48C368.06 58.48 366.88 57.98 365.48 57.98C364.12 57.98 362.94 58.48 361.94 59.48C360.98 60.44 360.5 61.62 360.5 63.02V72.98ZM410.54 53H420.5V87.98C420.5 90.7 419.52 93.06 417.56 95.06C415.6 97.02 413.26 98 410.54 98H400.52C397.8 98 395.44 97.02 393.44 95.06C391.48 93.1 390.5 90.74 390.5 87.98V53H400.52V87.98C400.52 89.34 401 90.52 401.96 91.52C402.96 92.52 404.14 93.02 405.5 93.02C406.9 93.02 408.08 92.52 409.04 91.52C410.04 90.52 410.54 89.34 410.54 87.98V53ZM455.539 63.02H450.559C450.119 59.66 448.539 57.98 445.819 57.98C444.059 57.98 442.739 58.4 441.859 59.24C440.979 60.08 440.539 61.34 440.539 63.02C440.539 64.26 441.019 65.44 441.979 66.56L452.599 78.44C454.559 80.64 455.539 83 455.539 85.52V87.98C455.539 90.7 454.559 93.06 452.599 95.06C450.639 97.02 448.279 98 445.519 98H440.539C437.219 98 434.719 97.18 433.039 95.54C431.359 93.86 430.519 91.34 430.519 87.98H435.559C435.559 88.34 435.559 88.62 435.559 88.82C435.559 90.18 436.079 91.22 437.119 91.94C438.159 92.66 439.299 93.02 440.539 93.02C442.299 93.02 443.559 92.6 444.319 91.76C445.119 90.88 445.519 89.62 445.519 87.98C445.519 86.7 445.039 85.52 444.079 84.44L433.459 72.56C431.499 70.4 430.519 68.04 430.519 65.48V63.02C430.519 60.3 431.499 57.96 433.459 56C435.419 54 437.779 53 440.539 53H445.519C451.799 53 455.139 56.34 455.539 63.02Z" fill="#E5E5E5"/>
</g>
<path d="M92 37H108.25L124.5 38L140.75 37H157V62H92V37Z" fill="#0088D5"/>
<path d="M21.5 12L8 -12L43.9633 -1.00484C46.1511 -0.335969 48.2833 0.502697 50.3405 1.50351V1.50351C54.4222 3.48919 58.7868 4.83063 63.2792 5.48012L63.4526 5.5052C65.7309 5.83458 67.9805 6.338 70.1819 7.01102L86.5 12V37H21.5V12Z" fill="#0088D5"/>
<path d="M152 154L186.443 159.873L192.883 161.505C200.966 163.554 208.066 168.391 212.932 175.162V175.162C214.554 177.419 215.905 179.859 216.956 182.432L221.909 194.552C222.641 196.344 223.202 198.201 223.586 200.098V200.098C225.707 210.597 222.214 221.445 214.364 228.733L199 243V223.5L201.656 206.069C202.548 200.215 202.623 194.266 201.879 188.391L200.726 179.288C200.598 178.272 199.722 177.517 198.699 177.539L152 178.559V154Z" fill="#0088D5"/>
<path d="M141.582 82.9308L155.311 90.1981L162.649 94.8167C166.544 97.2688 170.618 99.425 174.836 101.267L182.77 104.733L196.5 112L189.556 131.52L145.5 113.451L132 101L141.582 82.9308Z" fill="#0088D5"/>
<rect x="-35.2764" y="-26.7612" width="65.1476" height="76.2545" transform="rotate(27.9356 -35.2764 -26.7612)" fill="#0088D5"/>
<rect width="100.177" height="9.6488" transform="matrix(0.363787 0.931482 -0.911307 0.411728 18.6472 37.5967)" fill="#65615A"/>
<rect width="100.618" height="9.60156" transform="matrix(-0.274639 0.961547 0.949511 0.313735 75.5645 36.6328)" fill="#65615A"/>
<rect width="96.2715" height="10.0489" transform="matrix(-0.762034 0.647537 0.595417 0.803417 133.316 69.4426)" fill="#65615A"/>
<rect width="96.2715" height="10.0489" transform="matrix(0.819253 0.573432 -0.51767 0.855581 -31.2219 70.6965)" fill="#65615A"/>
<path d="M83.019 262.165L53.4557 166.449L62.5142 163.126L92.0776 258.842L83.019 262.165Z" fill="#65615A"/>
<rect width="100.177" height="9.6488" transform="matrix(0.363788 -0.931482 -0.911307 -0.411728 21.5583 261.012)" fill="#65615A"/>
<rect width="96.2715" height="10.0489" transform="matrix(0.819253 -0.573432 -0.51767 -0.855581 -31.2212 226.137)" fill="#65615A"/>
<rect width="96.2715" height="10.0489" transform="matrix(-0.729137 -0.684367 0.634354 -0.773043 131.537 232.113)" fill="#65615A"/>
<rect width="94.5012" height="10.2201" transform="matrix(-0.968345 -0.249615 0.217493 -0.976062 154.532 180.927)" fill="#65615A"/>
<rect width="94.5011" height="10.2201" transform="matrix(0.968345 -0.249615 -0.217493 -0.976062 -52.6401 184.273)" fill="#65615A"/>
<rect width="94.1637" height="10.2521" transform="matrix(0.99509 0.0989721 0.0856603 -0.996324 -54.2261 139.039)" fill="#65615A"/>
<rect width="94.1637" height="10.252" transform="matrix(-0.99509 0.0989721 -0.0856602 -0.996324 159.251 137.672)" fill="#65615A"/>
<path d="M157.585 176.794C160.531 159.787 160.013 142.295 156.069 125.524C152.124 108.753 144.846 93.1012 134.736 79.6469C124.625 66.1926 111.923 55.2558 97.5044 47.59C83.0857 39.9242 67.2932 35.7117 51.2151 35.2427C35.137 34.7737 19.1554 38.0595 4.37161 44.8735C-10.4122 51.6875 -23.6468 61.8678 -34.4202 74.713C-45.1937 87.5582 -53.2499 102.763 -58.0338 119.279C-62.8177 135.796 -64.2156 153.232 -62.131 170.385L-46.3004 168.16C-48.0858 153.467 -46.8885 138.533 -42.791 124.387C-38.6935 110.24 -31.7933 97.2171 -22.5656 86.215C-13.338 75.2129 -2.00239 66.4933 10.6602 60.657C23.3227 54.8207 37.0111 52.0065 50.7823 52.4081C64.5535 52.8098 78.08 56.4179 90.4298 62.9837C102.78 69.5496 113.659 78.9172 122.319 90.441C130.979 101.965 137.212 115.371 140.591 129.736C143.97 144.1 144.413 159.082 141.89 173.649L157.585 176.794Z" fill="#65615A"/>
<path d="M197.02 112.1L151.779 112.485L159.28 154.806L201.48 137.264L197.02 112.1Z" fill="#65615A"/>
<path d="M156.829 37.216L116.809 59.9099L141.546 93.7961L171.538 57.3645L156.829 37.216Z" fill="#65615A"/>
<path d="M12.5859 -6.66679L34.3773 35.9771L-3.61918 49.6158L-10.0067 1.44271L12.5859 -6.66679Z" fill="#65615A"/>
<path d="M81.1851 -7.2354L59.3937 35.4085L97.3902 49.0472L103.778 0.874105L81.1851 -7.2354Z" fill="#65615A"/>
<path d="M157.585 176.794C160.531 159.787 160.013 142.295 156.069 125.524C152.124 108.753 144.846 93.1012 134.736 79.6469C124.625 66.1926 111.923 55.2558 97.5044 47.59C83.0857 39.9242 67.2932 35.7117 51.2151 35.2427C35.137 34.7737 19.1554 38.0595 4.37161 44.8735C-10.4122 51.6875 -23.6468 61.8678 -34.4202 74.713C-45.1937 87.5582 -53.2499 102.763 -58.0338 119.279C-62.8177 135.796 -64.2156 153.232 -62.131 170.385L-46.3004 168.16C-48.0858 153.467 -46.8885 138.533 -42.791 124.387C-38.6935 110.24 -31.7933 97.2171 -22.5656 86.215C-13.338 75.2129 -2.00239 66.4933 10.6602 60.657C23.3227 54.8207 37.0111 52.0065 50.7823 52.4081C64.5535 52.8098 78.08 56.4179 90.4298 62.9837C102.78 69.5496 113.659 78.9172 122.319 90.441C130.979 101.965 137.212 115.371 140.591 129.736C143.97 144.1 144.413 159.082 141.89 173.649L157.585 176.794Z" fill="#65615A"/>
<path d="M197.02 112.1L151.779 112.485L159.28 154.806L201.48 137.264L197.02 112.1Z" fill="#65615A"/>
<path d="M156.829 37.216L116.809 59.9099L141.546 93.7961L171.538 57.3645L156.829 37.216Z" fill="#65615A"/>
<path d="M12.5859 -6.66679L34.3773 35.9771L-3.61918 49.6158L-10.0067 1.44271L12.5859 -6.66679Z" fill="#65615A"/>
<path d="M81.1851 -7.2354L59.3937 35.4085L97.3902 49.0472L103.778 0.874105L81.1851 -7.2354Z" fill="#65615A"/>
<path d="M-61.5854 137.742C-64.5313 154.748 -64.014 172.24 -60.0694 189.011C-56.1248 205.782 -48.8466 221.434 -38.7362 234.888C-28.6258 248.343 -15.9237 259.28 -1.50497 266.945C12.9137 274.611 28.7062 278.824 44.7844 279.293C60.8625 279.762 76.8441 276.476 91.6279 269.662C106.412 262.848 119.646 252.668 130.42 239.822C141.193 226.977 149.249 211.773 154.033 195.256C158.817 178.74 160.215 161.304 158.131 144.15L142.3 146.376C144.085 161.068 142.888 176.002 138.791 190.149C134.693 204.295 127.793 217.318 118.565 228.32C109.337 239.322 98.0019 248.042 85.3393 253.878C72.6768 259.715 58.9884 262.529 45.2172 262.127C31.446 261.726 17.9195 258.118 5.56966 251.552C-6.78019 244.986 -17.6598 235.618 -26.3194 224.094C-34.9791 212.571 -41.213 199.164 -44.5917 184.8C-47.9703 170.435 -48.4133 155.453 -45.8901 140.887L-61.5854 137.742Z" fill="#65615A"/>
<path d="M196.384 202.435L151.143 202.05L158.644 159.729L200.843 177.271L196.384 202.435Z" fill="#65615A"/>
<path d="M-61.5854 137.742C-64.5313 154.748 -64.014 172.24 -60.0694 189.011C-56.1248 205.782 -48.8466 221.434 -38.7362 234.888C-28.6258 248.343 -15.9237 259.28 -1.50497 266.945C12.9137 274.611 28.7062 278.824 44.7844 279.293C60.8625 279.762 76.8441 276.476 91.6279 269.662C106.412 262.848 119.646 252.668 130.42 239.822C141.193 226.977 149.249 211.773 154.033 195.256C158.817 178.74 160.215 161.304 158.131 144.15L142.3 146.376C144.085 161.068 142.888 176.002 138.791 190.149C134.693 204.295 127.793 217.318 118.565 228.32C109.337 239.322 98.0019 248.042 85.3393 253.878C72.6768 259.715 58.9884 262.529 45.2172 262.127C31.446 261.726 17.9195 258.118 5.56966 251.552C-6.78019 244.986 -17.6598 235.618 -26.3194 224.094C-34.9791 212.571 -41.213 199.164 -44.5917 184.8C-47.9703 170.435 -48.4133 155.453 -45.8901 140.887L-61.5854 137.742Z" fill="#65615A"/>
<path d="M196.384 202.435L151.143 202.05L158.644 159.729L200.843 177.271L196.384 202.435Z" fill="#65615A"/>
<ellipse cx="52.5903" cy="147.29" rx="27.976" ry="30.09" fill="#65615A"/>
<g filter="url(#filter1_d)">
<path d="M52.4311 143.81H69.9311V161.31C69.9311 165.23 68.6944 168.17 66.2211 170.13C63.7478 172.043 61.1111 173 58.3111 173H46.6211C43.4478 173 40.6944 171.857 38.3611 169.57C36.0744 167.283 34.9311 164.53 34.9311 161.31V132.19C34.9311 129.017 36.0511 126.287 38.2911 124C40.5778 121.667 43.3544 120.5 46.6211 120.5H58.3111C65.6378 120.5 69.5111 124.397 69.9311 132.19H64.1211C63.6544 128.27 61.7178 126.31 58.3111 126.31H52.4311C50.8444 126.31 49.4678 126.893 48.3011 128.06C47.1811 129.18 46.6211 130.557 46.6211 132.19V161.31C46.6211 162.943 47.1811 164.343 48.3011 165.51C49.4678 166.63 50.8444 167.19 52.4311 167.19C56.1644 167.003 58.1244 165.043 58.3111 161.31V149.69H52.4311V143.81ZM81.6205 173V120.5H105.001C108.174 120.5 110.904 121.667 113.191 124C115.477 126.287 116.621 129.017 116.621 132.19V135.34C116.621 137.953 115.734 140.473 113.961 142.9C112.187 145.28 109.201 146.47 105.001 146.47H110.811C112.397 146.47 113.751 147.053 114.871 148.22C116.037 149.34 116.621 150.717 116.621 152.35V173H105.001V155.5C105.001 153.913 104.417 152.56 103.251 151.44C102.131 150.273 100.754 149.69 99.1205 149.69H93.3105V173H81.6205ZM93.3105 143.81H99.1205C100.754 143.81 102.131 143.25 103.251 142.13C104.417 140.963 105.001 139.587 105.001 138V132.19C105.001 130.557 104.417 129.18 103.251 128.06C102.131 126.893 100.754 126.31 99.1205 126.31H93.3105V143.81ZM151.69 120.5H163.31V161.31C163.31 164.483 162.167 167.237 159.88 169.57C157.593 171.857 154.863 173 151.69 173H140C136.827 173 134.073 171.857 131.74 169.57C129.453 167.283 128.31 164.53 128.31 161.31V120.5H140V161.31C140 162.897 140.56 164.273 141.68 165.44C142.847 166.607 144.223 167.19 145.81 167.19C147.443 167.19 148.82 166.607 149.94 165.44C151.107 164.273 151.69 162.897 151.69 161.31V120.5ZM174.999 173V120.5H198.379C201.553 120.5 204.283 121.667 206.569 124C208.856 126.287 209.999 129.017 209.999 132.19V135.06C209.999 138.513 209.019 141.22 207.059 143.18C205.146 145.093 202.253 146.283 198.379 146.75C202.253 146.75 205.146 147.94 207.059 150.32C209.019 152.653 209.999 155.36 209.999 158.44V161.31C209.999 164.483 208.856 167.237 206.569 169.57C204.283 171.857 201.553 173 198.379 173H174.999ZM186.689 143.81H192.499C194.133 143.81 195.509 143.25 196.629 142.13C197.796 140.963 198.379 139.587 198.379 138V132.19C198.379 130.557 197.796 129.18 196.629 128.06C195.509 126.893 194.133 126.31 192.499 126.31H186.689V143.81ZM186.689 167.19H192.499C194.133 167.19 195.509 166.607 196.629 165.44C197.796 164.273 198.379 162.897 198.379 161.31V155.5C198.379 151.627 196.419 149.69 192.499 149.69H186.689V167.19ZM221.689 173V120.5H224.419L249.339 145.35L274.189 120.5H280.069V173H268.379V140.94L247.939 161.38L227.569 140.94V173H221.689ZM315.069 120.5H326.689V161.31C326.689 164.483 325.546 167.237 323.259 169.57C320.972 171.857 318.242 173 315.069 173H303.379C300.206 173 297.452 171.857 295.119 169.57C292.832 167.283 291.689 164.53 291.689 161.31V120.5H303.379V161.31C303.379 162.897 303.939 164.273 305.059 165.44C306.226 166.607 307.602 167.19 309.189 167.19C310.822 167.19 312.199 166.607 313.319 165.44C314.486 164.273 315.069 162.897 315.069 161.31V120.5ZM297.569 114.69V107.48H304.429V114.69H297.569ZM314.019 114.69V107.48H320.879V114.69H314.019ZM338.378 173V120.5H350.068V143.81H361.758V120.5H373.378V173H361.758V149.69H350.068V173H338.378ZM385.068 173V120.5H396.758V167.19H414.258V173H385.068ZM425.878 173V120.5H455.068V126.31H437.568V143.81H449.258V149.69H437.568V167.19H455.068V173H425.878Z" fill="#E5E5E5"/>
</g>
</g>
<defs>
<filter id="filter0_d" x="310.46" y="53" width="147.079" height="47" filterUnits="userSpaceOnUse" color-interpolation-filters="sRGB">
<feFlood flood-opacity="0" result="BackgroundImageFix"/>
<feColorMatrix in="SourceAlpha" type="matrix" values="0 0 0 0 0 0 0 0 0 0 0 0 0 0 0 0 0 0 127 0"/>
<feOffset dx="2" dy="2"/>
<feColorMatrix type="matrix" values="0 0 0 0 0 0 0 0 0 0 0 0 0 0 0 0 0 0 0.47 0"/>
<feBlend mode="normal" in2="BackgroundImageFix" result="effect1_dropShadow"/>
<feBlend mode="normal" in="SourceGraphic" in2="effect1_dropShadow" result="shape"/>
</filter>
<filter id="filter1_d" x="34.9312" y="107.48" width="422.137" height="67.52" filterUnits="userSpaceOnUse" color-interpolation-filters="sRGB">
<feFlood flood-opacity="0" result="BackgroundImageFix"/>
<feColorMatrix in="SourceAlpha" type="matrix" values="0 0 0 0 0 0 0 0 0 0 0 0 0 0 0 0 0 0 127 0"/>
<feOffset dx="2" dy="2"/>
<feColorMatrix type="matrix" values="0 0 0 0 0 0 0 0 0 0 0 0 0 0 0 0 0 0 0.47 0"/>
<feBlend mode="normal" in2="BackgroundImageFix" result="effect1_dropShadow"/>
<feBlend mode="normal" in="SourceGraphic" in2="effect1_dropShadow" result="shape"/>
</filter>
<clipPath id="clip0">
<rect width="476" height="211" fill="white"/>
</clipPath>
</defs>
</svg>
